<svg width="28" height="28" viewBox="0 0 28 28" fill="none" xmlns="http://www.w3.org/2000/svg">
<path d="M13.24 10.8933C13.2933 11.04 13.3333 11.1733 13.3333 11.3333V18.2933C13.3333 18.96 13.08 19.6 12.6267 20.0933L8.90666 24.16L4.37333 19.6266L6 18L9.73333 1.81329C9.89333 1.14663 10.4933 0.666626 11.1867 0.666626C12 0.666626 12.6667 1.33329 12.6667 2.14663V8.75996C12.4533 8.70663 12.2267 8.66663 12 8.66663C10.5333 8.66663 9.33333 9.86663 9.33333 11.3333V15.3333C9.33333 15.7066 9.62666 16 10 16C10.3733 16 10.6667 15.7066 10.6667 15.3333V11.3333C10.6667 10.6 11.2667 9.99996 12 9.99996C12.2533 9.99996 12.4667 10.0933 12.6667 10.2133C12.8267 10.3066 12.9467 10.4266 13.0667 10.56C13.1067 10.6133 13.1467 10.6666 13.1733 10.7333C13.2 10.7866 13.2267 10.84 13.24 10.8933ZM0.666664 23.3333L6 27.3333L7.56 25.64L2.96 21.04L0.666664 23.3333ZM22 18L18.2667 1.81329C18.1067 1.14663 17.5067 0.666626 16.8133 0.666626C16 0.666626 15.3333 1.33329 15.3333 2.14663V8.75996C15.5467 8.70663 15.7733 8.66663 16 8.66663C17.4667 8.66663 18.6667 9.86663 18.6667 11.3333V15.3333C18.6667 15.7066 18.3733 16 18 16C17.6267 16 17.3333 15.7066 17.3333 15.3333V11.3333C17.3333 10.6 16.7333 9.99996 16 9.99996C15.7467 9.99996 15.5333 10.0933 15.3333 10.2133C15.1733 10.3066 15.0533 10.4266 14.9467 10.56C14.9067 10.6133 14.8533 10.6666 14.8267 10.7333C14.8 10.7866 14.7733 10.84 14.76 10.8933C14.7067 11.04 14.6667 11.1733 14.6667 11.3333V18.2933C14.6667 18.96 14.92 19.6 15.3733 20.0933L19.0933 24.16L23.6267 19.6266L22 18ZM25.04 21.04L20.44 25.64L22 27.3333L27.3333 23.3333L25.04 21.04Z" fill="#6750A4"/>
</svg>
