<svg width="156" height="161" viewBox="0 0 156 161" fill="none" xmlns="http://www.w3.org/2000/svg">
<path d="M106.164 155.318H106.163C105.382 155.314 104.569 155.302 103.747 155.281C103.636 155.278 103.548 155.185 103.552 155.075C103.554 154.965 103.649 154.875 103.758 154.88C104.577 154.901 105.387 154.913 106.165 154.917C106.276 154.917 106.366 155.008 106.365 155.118C106.365 155.228 106.275 155.318 106.164 155.318ZM108.576 155.298C108.467 155.298 108.377 155.211 108.375 155.101C108.372 154.991 108.461 154.899 108.572 154.897C109.388 154.88 110.197 154.852 110.978 154.815C111.086 154.807 111.183 154.894 111.188 155.005C111.193 155.115 111.108 155.21 110.997 155.215C110.213 155.253 109.4 155.281 108.581 155.298H108.577H108.576ZM101.342 155.195C101.342 155.195 101.336 155.195 101.333 155.195C100.548 155.16 99.7367 155.116 98.9213 155.067C98.8108 155.06 98.7259 154.965 98.733 154.854C98.74 154.744 98.8338 154.663 98.9461 154.666C99.7597 154.716 100.569 154.759 101.352 154.794C101.462 154.8 101.549 154.893 101.543 155.003C101.539 155.111 101.45 155.195 101.343 155.195H101.342ZM17.7988 155.079C17.7156 155.079 17.6378 155.027 17.6086 154.944C17.5724 154.839 17.6281 154.725 17.7333 154.689C18.4939 154.428 19.2544 154.166 20.0167 153.91C20.122 153.874 20.236 153.931 20.2714 154.036C20.3068 154.141 20.2502 154.255 20.145 154.29C19.3835 154.547 18.6239 154.808 17.8642 155.07C17.8421 155.077 17.82 155.08 17.7988 155.08V155.079ZM113.394 155.063C113.29 155.063 113.202 154.983 113.194 154.878C113.185 154.768 113.267 154.671 113.379 154.662C114.189 154.597 114.994 154.52 115.773 154.431C115.881 154.417 115.982 154.498 115.996 154.608C116.008 154.718 115.929 154.817 115.819 154.83C115.035 154.919 114.225 154.997 113.411 155.062C113.405 155.062 113.4 155.062 113.395 155.062L113.394 155.063ZM96.5265 154.901C96.5212 154.901 96.5159 154.901 96.5115 154.901C95.7368 154.842 94.9267 154.776 94.1051 154.702C93.9946 154.692 93.9132 154.594 93.923 154.484C93.9327 154.373 94.0308 154.292 94.1414 154.302C94.9621 154.375 95.7695 154.442 96.5424 154.5C96.653 154.509 96.7361 154.605 96.7272 154.716C96.7193 154.821 96.6308 154.901 96.5274 154.901H96.5265ZM118.185 154.514C118.087 154.514 118.002 154.443 117.986 154.344C117.969 154.235 118.045 154.132 118.155 154.116C118.955 153.995 119.751 153.857 120.523 153.707C120.632 153.685 120.738 153.757 120.759 153.866C120.78 153.974 120.708 154.08 120.599 154.101C119.821 154.251 119.019 154.389 118.214 154.512C118.204 154.514 118.194 154.514 118.184 154.514H118.185ZM91.7218 154.474C91.7147 154.474 91.7085 154.474 91.7015 154.473C90.9011 154.393 90.1008 154.307 89.3004 154.22C89.1899 154.207 89.1103 154.108 89.1227 153.998C89.1351 153.888 89.2359 153.809 89.3447 153.821C90.1432 153.909 90.9418 153.994 91.7413 154.074C91.8518 154.086 91.9323 154.183 91.9208 154.294C91.9102 154.397 91.8226 154.474 91.7209 154.474H91.7218ZM86.9268 153.946C86.9189 153.946 86.9109 153.946 86.903 153.944C86.1044 153.85 85.3058 153.752 84.5073 153.652C84.3967 153.638 84.3189 153.538 84.333 153.428C84.3472 153.318 84.4471 153.242 84.5577 153.254C85.3554 153.354 86.153 153.451 86.9507 153.545C87.0613 153.559 87.14 153.658 87.1267 153.769C87.1143 153.87 87.0277 153.945 86.9277 153.945L86.9268 153.946ZM122.92 153.595C122.829 153.595 122.747 153.533 122.725 153.441C122.699 153.334 122.765 153.225 122.873 153.199C123.514 153.046 124.156 152.879 124.782 152.704C124.92 152.665 125.057 152.626 125.195 152.586C125.302 152.554 125.414 152.616 125.445 152.723C125.476 152.83 125.415 152.941 125.308 152.972C125.169 153.012 125.029 153.052 124.89 153.091C124.261 153.267 123.613 153.435 122.968 153.59C122.952 153.594 122.936 153.596 122.921 153.596L122.92 153.595ZM22.3735 153.548C22.2886 153.548 22.209 153.493 22.1816 153.409C22.148 153.303 22.2064 153.191 22.3125 153.157C23.1394 152.896 23.8964 152.668 24.6277 152.461C24.7347 152.431 24.8453 152.492 24.8762 152.599C24.9063 152.706 24.8444 152.816 24.7374 152.847C24.0105 153.053 23.257 153.28 22.4337 153.54C22.4133 153.546 22.393 153.55 22.3726 153.55L22.3735 153.548ZM82.1398 153.349C82.131 153.349 82.1222 153.349 82.1142 153.348C81.3165 153.244 80.5188 153.139 79.722 153.034C79.6124 153.02 79.5345 152.919 79.5496 152.809C79.5646 152.699 79.6663 152.622 79.7751 152.636C80.5719 152.741 81.3687 152.846 82.1664 152.95C82.2769 152.964 82.3539 153.064 82.3397 153.174C82.3264 153.275 82.2398 153.349 82.1407 153.349L82.1398 153.349ZM77.3573 152.718C77.3484 152.718 77.3396 152.718 77.3307 152.717C76.5339 152.61 75.7371 152.504 74.9403 152.399C74.8298 152.385 74.7528 152.283 74.7679 152.174C74.782 152.064 74.8846 151.988 74.9934 152.002C75.7902 152.108 76.5879 152.214 77.3847 152.319C77.4952 152.334 77.5722 152.435 77.5571 152.545C77.5439 152.645 77.4572 152.718 77.3582 152.718H77.3573ZM127.55 152.247C127.466 152.247 127.389 152.195 127.359 152.112C127.323 152.007 127.379 151.893 127.483 151.857C128.239 151.595 128.995 151.311 129.73 151.011C129.832 150.969 129.95 151.019 129.991 151.122C130.034 151.224 129.984 151.342 129.881 151.383C129.139 151.685 128.376 151.972 127.614 152.236C127.592 152.244 127.57 152.248 127.548 152.248L127.55 152.247ZM27.0155 152.239C26.9253 152.239 26.843 152.178 26.8201 152.086C26.7935 151.979 26.8598 151.87 26.9677 151.844C27.7424 151.655 28.5366 151.476 29.3272 151.312C29.4351 151.29 29.5421 151.359 29.5651 151.468C29.5881 151.576 29.5182 151.682 29.4094 151.705C28.6232 151.868 27.8335 152.046 27.0632 152.234C27.0473 152.237 27.0314 152.239 27.0155 152.239ZM72.5747 152.086C72.5658 152.086 72.557 152.086 72.5482 152.084C71.7514 151.981 70.9537 151.877 70.1569 151.777C70.0463 151.763 69.9685 151.663 69.9827 151.552C69.9968 151.442 70.0985 151.365 70.2073 151.379C71.005 151.479 71.8027 151.582 72.6003 151.686C72.71 151.7 72.7878 151.801 72.7737 151.911C72.7604 152.012 72.6737 152.086 72.5747 152.086ZM67.7886 151.484C67.7806 151.484 67.7727 151.484 67.7638 151.482C66.9661 151.386 66.1676 151.292 65.3699 151.202C65.2593 151.19 65.1806 151.09 65.193 150.981C65.2054 150.87 65.3044 150.793 65.415 150.804C66.2144 150.894 67.013 150.988 67.8125 151.084C67.923 151.097 68.0017 151.197 67.9875 151.307C67.9752 151.409 67.8885 151.484 67.7886 151.484ZM31.7379 151.259C31.6424 151.259 31.5566 151.191 31.5398 151.094C31.5213 150.984 31.5947 150.88 31.7034 150.861C32.4896 150.726 33.2935 150.6 34.093 150.488C34.2035 150.472 34.3043 150.549 34.3202 150.658C34.3353 150.769 34.2592 150.869 34.1496 150.885C33.3545 150.996 32.5551 151.122 31.7733 151.257C31.7618 151.259 31.7503 151.259 31.7388 151.259H31.7379ZM62.9945 150.944C62.9874 150.944 62.9804 150.944 62.9733 150.944C62.157 150.859 61.3496 150.78 60.5749 150.709C60.4644 150.698 60.383 150.601 60.3936 150.491C60.4033 150.38 60.5006 150.299 60.612 150.309C61.3885 150.38 62.1968 150.459 63.0148 150.544C63.1254 150.555 63.2059 150.654 63.1944 150.764C63.1838 150.868 63.0962 150.944 62.9945 150.944ZM36.5134 150.587C36.4126 150.587 36.3251 150.511 36.3136 150.409C36.3012 150.298 36.3808 150.199 36.4913 150.187C37.2837 150.1 38.0929 150.022 38.8977 149.957C39.0073 149.95 39.1055 150.03 39.1143 150.14C39.1232 150.251 39.0409 150.348 38.9304 150.357C38.1292 150.422 37.3235 150.5 36.5356 150.586C36.5276 150.586 36.5205 150.587 36.5134 150.587ZM58.1898 150.503C58.1845 150.503 58.1792 150.503 58.1739 150.503C57.3691 150.439 56.5608 150.38 55.7711 150.33C55.6606 150.323 55.5765 150.228 55.5836 150.117C55.5907 150.006 55.6862 149.928 55.7976 149.929C56.5891 149.981 57.4001 150.039 58.2066 150.103C58.3172 150.112 58.3994 150.208 58.3914 150.32C58.3826 150.425 58.295 150.504 58.1916 150.504L58.1898 150.503ZM132.013 150.426C131.938 150.426 131.865 150.384 131.832 150.312C131.784 150.212 131.826 150.092 131.927 150.044C132.652 149.701 133.371 149.334 134.065 148.954C134.162 148.9 134.284 148.937 134.338 149.034C134.391 149.131 134.356 149.252 134.258 149.306C133.558 149.689 132.832 150.059 132.1 150.407C132.072 150.42 132.042 150.426 132.014 150.426H132.013ZM53.3754 150.192C53.3754 150.192 53.3683 150.192 53.3657 150.192C52.5565 150.153 51.7464 150.12 50.9593 150.095C50.8488 150.092 50.7612 149.999 50.7648 149.889C50.7683 149.78 50.8576 149.695 50.9655 149.695C50.9673 149.695 50.97 149.695 50.9717 149.695C51.7614 149.719 52.5742 149.752 53.3851 149.792C53.4957 149.797 53.5814 149.891 53.5761 150.002C53.5708 150.109 53.4824 150.192 53.3754 150.192ZM41.3199 150.192C41.2138 150.192 41.1253 150.109 41.1191 150.002C41.113 149.891 41.1979 149.796 41.3084 149.79C42.0999 149.746 42.9126 149.711 43.7227 149.685C43.8315 149.682 43.9261 149.769 43.9296 149.879C43.9332 149.989 43.8456 150.082 43.7351 150.086C42.9277 150.111 42.1194 150.147 41.3305 150.19C41.327 150.19 41.3225 150.19 41.319 150.19L41.3199 150.192ZM48.5539 150.043H48.5512C47.7483 150.034 46.9461 150.032 46.1432 150.039H46.1414C46.0308 150.039 45.9415 149.951 45.9406 149.84C45.9398 149.73 46.0291 149.639 46.1396 149.638C46.9444 149.631 47.75 149.633 48.5557 149.643C48.6671 149.644 48.7555 149.735 48.7546 149.846C48.7529 149.956 48.6636 150.044 48.5539 150.044V150.043ZM136.239 148.11C136.173 148.11 136.107 148.076 136.069 148.016C136.01 147.922 136.038 147.798 136.132 147.739C136.811 147.311 137.48 146.859 138.118 146.396C138.209 146.331 138.334 146.351 138.4 146.44C138.465 146.53 138.445 146.655 138.355 146.719C137.71 147.187 137.034 147.644 136.348 148.077C136.314 148.098 136.277 148.108 136.241 148.108L136.239 148.11ZM140.137 145.279C140.08 145.279 140.023 145.254 139.984 145.208C139.912 145.123 139.923 144.996 140.008 144.925C140.623 144.412 141.223 143.873 141.789 143.324C141.869 143.247 141.996 143.249 142.073 143.329C142.15 143.408 142.148 143.535 142.069 143.612C141.495 144.167 140.888 144.712 140.266 145.232C140.228 145.264 140.183 145.279 140.137 145.279H140.137ZM143.596 141.931C143.548 141.931 143.502 141.914 143.463 141.88C143.38 141.807 143.372 141.68 143.446 141.597C143.649 141.368 143.85 141.134 144.045 140.902C144.359 140.526 144.664 140.135 144.948 139.741C145.013 139.651 145.139 139.631 145.229 139.696C145.319 139.76 145.339 139.887 145.274 139.976C144.983 140.377 144.673 140.775 144.352 141.158C144.155 141.394 143.952 141.631 143.746 141.863C143.706 141.908 143.651 141.931 143.595 141.931H143.596ZM146.404 138.028C146.371 138.028 146.338 138.02 146.308 138.003C146.21 137.949 146.175 137.827 146.229 137.73C146.625 137.012 146.961 136.286 147.226 135.572C147.265 135.469 147.38 135.415 147.485 135.454C147.589 135.493 147.642 135.609 147.603 135.712C147.331 136.444 146.987 137.188 146.581 137.924C146.545 137.99 146.476 138.028 146.405 138.028H146.404ZM148.046 133.523C148.035 133.523 148.024 133.522 148.013 133.52C147.903 133.502 147.83 133.399 147.847 133.289C147.941 132.731 147.989 132.178 147.989 131.646C147.989 131.409 147.979 131.172 147.96 130.94C147.952 130.829 148.034 130.732 148.144 130.724C148.256 130.716 148.352 130.797 148.361 130.907C148.381 131.15 148.39 131.398 148.39 131.645C148.39 132.199 148.341 132.775 148.243 133.355C148.227 133.452 148.142 133.522 148.045 133.522L148.046 133.523ZM147.627 128.786C147.547 128.786 147.471 128.738 147.44 128.658C147.406 128.572 147.371 128.486 147.333 128.401C147.063 127.775 146.706 127.179 146.276 126.627C146.208 126.54 146.223 126.414 146.31 126.346C146.398 126.278 146.524 126.293 146.592 126.38C147.044 126.958 147.417 127.584 147.702 128.242C147.741 128.332 147.778 128.422 147.814 128.513C147.854 128.616 147.803 128.732 147.7 128.772C147.676 128.782 147.651 128.786 147.626 128.786H147.627ZM144.725 125.015C144.682 125.015 144.639 125.001 144.602 124.973C144.015 124.515 143.344 124.084 142.605 123.694C142.507 123.642 142.469 123.521 142.521 123.423C142.573 123.325 142.694 123.288 142.792 123.339C143.553 123.741 144.244 124.184 144.849 124.657C144.937 124.725 144.952 124.851 144.884 124.938C144.844 124.989 144.785 125.015 144.725 125.015ZM140.498 122.733C140.474 122.733 140.451 122.728 140.427 122.719C139.727 122.455 138.962 122.205 138.15 121.976C138.043 121.946 137.981 121.835 138.011 121.729C138.042 121.622 138.153 121.561 138.26 121.591C139.082 121.823 139.86 122.076 140.569 122.345C140.672 122.384 140.725 122.5 140.686 122.604C140.656 122.684 140.579 122.734 140.497 122.734L140.498 122.733ZM135.866 121.398C135.851 121.398 135.836 121.396 135.821 121.393C135.042 121.215 134.25 121.05 133.468 120.899C133.359 120.878 133.287 120.773 133.308 120.665C133.33 120.556 133.435 120.486 133.544 120.506C134.331 120.657 135.128 120.824 135.911 121.003C136.019 121.027 136.087 121.135 136.062 121.243C136.041 121.335 135.958 121.399 135.867 121.399L135.866 121.398ZM131.129 120.489C131.119 120.489 131.108 120.489 131.098 120.486C130.31 120.363 129.508 120.252 128.715 120.155C128.605 120.142 128.527 120.042 128.54 119.932C128.553 119.822 128.652 119.744 128.764 119.757C129.561 119.855 130.367 119.967 131.16 120.09C131.269 120.108 131.344 120.21 131.327 120.32C131.311 120.418 131.226 120.489 131.129 120.489H131.129ZM126.342 119.907C126.335 119.907 126.33 119.907 126.324 119.907C125.531 119.839 124.724 119.783 123.925 119.741C123.814 119.734 123.728 119.64 123.734 119.53C123.741 119.419 123.834 119.33 123.946 119.34C124.75 119.382 125.562 119.438 126.359 119.508C126.47 119.517 126.552 119.614 126.542 119.725C126.533 119.829 126.445 119.908 126.342 119.908L126.342 119.907ZM121.526 119.606C121.521 119.606 121.516 119.606 121.509 119.606C120.558 119.529 119.79 119.417 119.095 119.252C118.987 119.226 118.92 119.118 118.946 119.01C118.971 118.902 119.08 118.835 119.188 118.862C119.864 119.021 120.612 119.131 121.542 119.206C121.653 119.215 121.735 119.312 121.726 119.422C121.717 119.527 121.63 119.607 121.526 119.607V119.606Z" fill="#6750A4"/>
<path d="M76.0976 106.071C105.254 106.071 128.89 82.3259 128.89 53.0353C128.89 23.7447 105.254 0 76.0976 0C46.941 0 23.3049 23.7447 23.3049 53.0353C23.3049 82.3259 46.941 106.071 76.0976 106.071Z" fill="white"/>
<path d="M75.8598 106.071C61.6949 106.071 48.3773 100.553 38.3612 90.5367C28.3451 80.52 22.8293 67.2016 22.8293 53.0353C22.8293 38.869 28.3451 25.5506 38.3612 15.5339C48.3773 5.51716 61.6949 0 75.8598 0C90.0247 0 103.342 5.51716 113.358 15.5339C123.374 25.5506 128.89 38.869 128.89 53.0353C128.89 67.2016 123.374 80.52 113.358 90.5367C103.342 100.554 90.0247 106.071 75.8598 106.071ZM75.8598 0.399297C46.8403 0.399297 23.2312 24.0115 23.2312 53.0353C23.2312 82.0591 46.8403 105.671 75.8598 105.671C104.879 105.671 128.488 82.0591 128.488 53.0353C128.488 24.0115 104.879 0.400177 75.8598 0.400177V0.399297Z" fill="#6750A4"/>
<path d="M72.7004 17.5206C72.6233 17.5206 72.5453 17.5136 72.4665 17.4988C71.6947 17.3539 70.9028 16.5082 70.3483 15.2365C69.9304 14.2782 69.9628 12.4985 69.9944 10.7774C70.0198 9.38874 70.0443 8.0778 69.8157 7.48081C69.4022 6.40378 68.9975 6.4125 68.019 6.43432C67.8779 6.43781 67.7281 6.44043 67.5678 6.44043C66.6217 6.44043 66.0015 5.90715 65.758 5.44981C65.6117 5.17575 65.5942 4.92089 65.7098 4.7507C67.4566 2.18118 73.1191 2.83054 76.1614 3.17879C80.9637 3.72952 81.4481 6.14368 81.3097 7.53492C81.0706 9.93686 76.1588 12.6897 75.5999 12.996C75.0384 13.3032 74.7887 14.1935 74.547 15.0541C74.3297 15.8291 74.1046 16.6303 73.635 17.1008C73.3591 17.3775 73.0402 17.5197 72.7004 17.5197V17.5206ZM68.365 6.03196C69.1727 6.03196 69.7377 6.1655 70.1871 7.33854C70.4438 8.0071 70.4184 9.35645 70.3921 10.7843C70.3623 12.3842 70.329 14.1987 70.7127 15.0785C71.2068 16.2123 71.9067 16.9899 72.5392 17.1086C72.8335 17.1636 73.1068 17.0676 73.3512 16.8224C73.7472 16.4252 73.9583 15.6746 74.1624 14.9485C74.4261 14.0085 74.6994 13.037 75.4072 12.6486C77.3686 11.576 80.7351 9.28313 80.9129 7.49652C81.1301 5.3154 79.4719 3.95907 76.115 3.57417C73.1567 3.23552 67.6502 2.60361 66.0392 4.97413C66.0261 4.99421 66.0208 5.10418 66.1163 5.27787C66.3116 5.63135 66.8083 6.04418 67.567 6.04418C67.7238 6.04418 67.8709 6.04069 68.0085 6.03807C68.132 6.03545 68.2502 6.03284 68.3641 6.03284L68.365 6.03196Z" fill="#B69DF8"/>
<path d="M59.6239 100.862C59.0299 100.862 58.3211 100.535 57.8314 100.099C56.7076 99.0971 54.6275 94.8093 53.6881 92.2977C52.9454 90.3107 52.5572 84.1366 52.3007 80.0516C52.2233 78.8258 52.1574 77.7675 52.1004 77.1563C51.9054 75.068 51.039 74.7426 48.7238 73.8712C48.3426 73.7284 47.925 73.5714 47.4682 73.3897C44.1228 72.0634 43.8022 70.7352 43.8672 68.0207C43.8734 67.7729 43.8503 67.4484 43.8236 67.0727C43.7087 65.442 43.5351 62.9771 45.2563 61.4417C46.7648 60.096 47.5608 55.7253 47.4736 53.8874C47.4424 53.2313 47.8191 52.6263 48.4566 52.3088C49.6766 51.702 51.7371 51.1826 54.6257 52.1571C55.8359 52.5654 56.3862 53.2286 56.9187 53.8706C57.3576 54.3998 57.8109 54.9465 58.6595 55.3716C59.2588 55.6715 60.0005 55.8567 60.7173 56.0357C62.2463 56.4167 63.8268 56.8109 63.4546 58.3842C63.0085 60.2732 65.4688 62.2469 69.4376 63.1844C71.8071 63.7435 73.564 65.2956 73.71 66.9598C73.8053 68.0428 73.1802 68.9546 71.9959 69.4617C69.0814 70.7096 69.1242 71.566 69.4679 73.0952C69.5952 73.6614 69.8285 74.254 70.0547 74.8272C70.4821 75.9111 70.8508 76.8468 70.3806 77.3503C69.7261 78.0506 67.597 78.7041 66.6692 78.9113C65.8054 79.1036 64.7707 80.1063 64.541 81.8516C64.2908 83.7494 61.2766 88.4649 59.4413 90.5374C57.8572 92.3268 58.525 93.8675 59.8554 96.9365C59.9649 97.1896 60.0789 97.4524 60.1964 97.7266C60.8536 99.2594 60.883 100.252 60.2828 100.675C60.0994 100.804 59.8714 100.862 59.623 100.862H59.6239ZM48.6383 52.6677C48.1459 52.9129 47.8547 53.3732 47.8778 53.8689C47.9562 55.526 47.251 60.2018 45.527 61.7398C43.9518 63.1447 44.1174 65.4923 44.227 67.0453C44.2546 67.4307 44.2777 67.7641 44.2715 68.0304C44.2083 70.6629 44.4807 71.7741 47.6187 73.0184C48.0728 73.1984 48.4878 73.3545 48.8671 73.4973C51.2144 74.3801 52.2847 74.7822 52.5038 77.1202C52.5616 77.7375 52.6249 78.7482 52.7059 80.0278C52.9615 84.0898 53.347 90.2278 54.0692 92.1592C54.9935 94.6329 57.0246 98.8396 58.103 99.8018C58.6711 100.308 59.6239 100.651 60.0495 100.349C60.4555 100.063 60.3736 99.1641 59.8251 97.8845C59.7076 97.6111 59.5936 97.3483 59.4841 97.0961C58.1306 93.9742 57.3844 92.2545 59.1377 90.2746C60.8981 88.2859 63.9025 83.6004 64.1403 81.8013C64.3967 79.8541 65.5516 78.7517 66.581 78.5215C67.5302 78.3098 69.5329 77.6696 70.085 77.0796C70.3833 76.7612 70.0253 75.8529 69.6789 74.9754C69.4474 74.388 69.2079 73.7804 69.0743 73.1842C68.7048 71.5351 68.7056 70.4362 71.8374 69.0958C72.8668 68.6548 73.3895 67.9096 73.3084 66.9968C73.2007 65.7745 71.9149 64.1827 69.345 63.5768C65.0788 62.5697 62.5544 60.447 63.0619 58.296C63.3291 57.1636 62.3077 56.8479 60.6194 56.4273C59.8803 56.2429 59.1163 56.0533 58.477 55.7323C57.5527 55.2684 57.0718 54.689 56.6061 54.1281C56.087 53.502 55.5963 52.9111 54.4948 52.539C51.7389 51.6094 49.7888 52.0971 48.6383 52.6695V52.6677Z" fill="#B69DF8"/>
<path d="M98.3603 85.2353C98.0297 85.2353 97.714 85.0734 97.4398 84.7576C95.9947 83.0903 95.6323 76.8038 97.8216 73.5536C100.276 69.9076 98.6451 67.0648 97.8295 66.0107C97.1894 65.1837 97.0871 61.5913 97.1136 58.7239V58.5628C97.1145 58.5268 97.1197 58.4705 97.1268 58.3974C97.1709 57.9575 97.2723 56.9272 96.4488 56.1591C95.4234 55.2027 93.3479 54.9775 90.2805 55.4922C87.5922 55.9418 85.6084 55.5423 84.3819 54.3026C83.0188 52.9257 82.6238 50.5932 83.2075 47.3703C83.4844 45.8394 83.2331 44.605 83.0118 43.5157C82.8804 42.8691 82.7561 42.2576 82.7561 41.6584C82.7561 39.7993 85.2601 38.2657 87.3603 37.3067C88.6132 36.7348 89.501 36.0538 90.3598 35.3957C91.1604 34.7815 91.9169 34.2026 92.8638 33.8102C94.2648 33.2312 94.837 34.2052 95.3899 35.1493C95.6852 35.6534 95.9903 36.1752 96.4347 36.5465C96.9231 36.9556 97.2264 36.8148 97.729 36.5808C98.3867 36.2746 99.2878 35.8567 100.9 36.8685C102.768 38.0422 104.882 37.5425 105.722 36.8351C105.938 36.653 106.275 36.2861 106.104 35.8743C105.885 35.3446 105.43 35.1739 104.855 34.9584C104.148 34.6935 103.268 34.3636 102.741 33.1732C102.157 31.8525 103.238 30.9929 104.193 30.2345C104.844 29.7171 105.518 29.1813 105.644 28.5452C105.772 27.9038 105.464 27.0732 104.801 26.2664C104.132 25.4525 103.228 24.8393 102.7 24.8393C102.403 24.8393 102.311 25.4939 102.214 26.1872C102.051 27.353 101.827 28.9508 100.411 29.4479C99.1635 29.8869 97.9626 29.2288 96.8023 28.5927C95.776 28.0305 94.7154 27.448 93.6512 27.653C92.4556 27.8818 91.379 29.2983 90.2381 30.7976C89.2383 32.1121 88.205 33.4714 86.9812 34.1665C86.0827 34.6768 85.2813 34.5712 84.7831 33.877C83.9922 32.7755 84.1747 30.4113 85.5149 29.2227C87.1346 27.7868 87.0649 25.8309 87.0279 24.7812C87.0226 24.6413 87.0182 24.5181 87.0182 24.4134C87.0182 24.1169 87.0914 23.3611 87.7685 22.7479C88.5224 22.0651 89.74 21.7994 91.3887 21.9604C92.6919 22.0871 93.6838 21.8988 94.2578 21.4167C94.7198 21.0287 94.7568 20.587 94.7586 20.5685C95.2391 17.1837 94.7101 16.2502 94.3512 15.9933C94.0382 15.769 93.6424 15.8877 93.3655 16.0268C93.2553 16.098 92.9299 16.6558 92.6416 17.1468C91.7732 18.6311 90.5873 20.6662 89.4737 20.4365C88.6978 20.2773 88.2032 19.1132 87.9158 16.7737C87.5093 13.462 87.8964 11.3565 89.0664 10.5163C90.0891 9.78161 91.3085 10.3042 91.4434 10.3658C93.6556 11.1471 95.3766 11.1155 96.5581 10.2726C98.2642 9.05486 98.4185 6.46724 98.4061 5.41143C98.4061 5.34192 98.4405 5.27769 98.4996 5.23986C98.5587 5.2029 98.6318 5.1985 98.6944 5.2293C105.58 8.57623 111.786 13.5016 116.641 19.474C121.548 25.5088 125.123 32.6787 126.982 40.2066C126.989 40.2348 126.99 40.263 126.984 40.2911C126.697 41.8212 126.09 43.9477 124.837 45.3933C123.804 46.5838 123.964 47.7425 124.106 48.764C124.212 49.5339 124.313 50.2606 123.825 50.8044C123.684 50.9619 123.541 51.1783 123.401 51.3868C123.052 51.9112 122.691 52.455 122.196 52.3547C121.615 52.2394 120.92 51.3323 119.777 45.5262C118.328 38.1592 115.063 37.7184 113.726 37.8698C113.665 37.8768 113.646 37.9217 113.641 37.941C113.635 37.9639 113.631 38.0062 113.675 38.0396C114.551 38.7012 116.051 40.0483 116.267 41.6329C116.371 42.4001 116.163 43.1304 115.646 43.8052C113.726 46.3136 113.211 48.5124 114.195 49.9976C115.183 51.4854 115.325 52.5931 114.783 54.556C114.583 55.2766 113.986 56.0306 113.353 56.8287C112.153 58.3402 110.795 60.0533 111.848 61.9573C113.627 65.1731 109.406 75.0863 106.523 77.3141C105.188 78.3453 103.976 79.8278 102.804 81.2602C101.446 82.9205 100.162 84.4883 98.8593 85.1122C98.6918 85.1922 98.5243 85.2318 98.3603 85.2318V85.2353ZM93.1045 54.827C94.7674 54.827 95.9788 55.1746 96.7221 55.867C97.6902 56.7706 97.5703 57.9813 97.5253 58.437C97.52 58.4925 97.5147 58.5356 97.5147 58.5628V58.7274C97.4618 64.2766 97.9388 65.4987 98.146 65.7661C99.0145 66.8879 100.754 69.9146 98.154 73.7762C96.0926 76.8381 96.4029 82.9504 97.7431 84.4963C98.0358 84.8341 98.3444 84.9186 98.6865 84.7549C99.9094 84.1698 101.165 82.6354 102.494 81.0103C103.68 79.5595 104.908 78.0602 106.278 77C109.273 74.6851 113.057 64.9725 111.497 62.1535C110.316 60.0163 111.762 58.1924 113.039 56.5832C113.645 55.8177 114.218 55.0954 114.396 54.4531C114.965 52.3969 114.677 51.4502 113.861 50.221C113.232 49.2726 112.586 47.1469 115.328 43.565C115.776 42.9782 115.959 42.3473 115.87 41.6892C115.673 40.2471 114.259 38.9845 113.434 38.3607C113.271 38.2384 113.202 38.0325 113.255 37.8372C113.308 37.6401 113.476 37.4976 113.681 37.4738C115.127 37.3067 118.657 37.7563 120.171 45.4505C121.202 50.6935 121.884 51.8866 122.274 51.964C122.506 52.008 122.803 51.5619 123.067 51.1669C123.214 50.946 123.366 50.719 123.526 50.5395C123.891 50.1331 123.81 49.5532 123.709 48.8203C123.563 47.7689 123.383 46.4606 124.534 45.1329C125.717 43.7683 126.301 41.7393 126.582 40.2612C122.845 25.1683 112.732 12.6024 98.8055 5.72993C98.7791 6.98723 98.4917 9.3848 96.7918 10.5981C95.4966 11.5228 93.6494 11.5703 91.3015 10.7398C91.2953 10.7371 91.2882 10.7345 91.2821 10.7318C91.2715 10.7266 90.165 10.218 89.2983 10.8436C88.5832 11.3592 87.832 12.7986 88.3134 16.7262C88.6326 19.3244 89.1642 19.9658 89.5548 20.0459C90.3836 20.2113 91.5801 18.1692 92.2951 16.9462C92.7712 16.1315 92.9899 15.7681 93.1848 15.6695C93.7155 15.4029 94.2128 15.4021 94.584 15.6687C95.3625 16.2265 95.5494 17.8428 95.1553 20.6099C95.1553 20.6187 95.1148 21.2099 94.5267 21.7123C93.8601 22.2816 92.7898 22.4998 91.3482 22.359C89.8396 22.2138 88.6943 22.4496 88.0366 23.0444C87.4776 23.5503 87.4176 24.1706 87.4176 24.4134C87.4176 24.5137 87.422 24.6325 87.4264 24.7671C87.4661 25.8836 87.541 27.961 85.7794 29.5227C84.605 30.5644 84.4251 32.6954 85.1067 33.6448C85.4823 34.1683 86.0616 34.2281 86.781 33.8199C87.9334 33.1652 88.9421 31.8393 89.9163 30.5565C91.104 28.9939 92.2264 27.5184 93.5727 27.2606C94.778 27.0301 95.9039 27.6469 96.9919 28.2434C98.1258 28.8646 99.1961 29.4514 100.274 29.0722C101.46 28.6552 101.656 27.2571 101.814 26.1335C101.941 25.2255 102.051 24.4407 102.697 24.4407C103.344 24.4407 104.346 25.0874 105.108 26.0139C105.848 26.9131 106.185 27.8651 106.035 28.6235C105.879 29.403 105.148 29.9846 104.44 30.5477C103.477 31.3132 102.645 31.9739 103.105 33.0122C103.563 34.0486 104.29 34.3214 104.992 34.5844C105.579 34.8035 106.185 35.0314 106.472 35.7212C106.668 36.1937 106.488 36.711 105.977 37.1404C105.019 37.9463 102.743 38.4997 100.683 37.2064C99.2561 36.3107 98.5331 36.6459 97.8948 36.9433C97.3851 37.18 96.857 37.4255 96.1737 36.8527C95.6764 36.4365 95.3378 35.8593 95.0398 35.3508C94.435 34.3178 94.0426 33.7539 93.0137 34.1797C92.1153 34.551 91.3791 35.1159 90.6005 35.7124C89.7647 36.3529 88.8177 37.0788 87.5243 37.6701C84.7064 38.9573 83.1546 40.3738 83.1546 41.6584C83.1546 42.218 83.2754 42.8101 83.4024 43.4366C83.6316 44.561 83.8908 45.835 83.5999 47.4425C83.0409 50.5299 83.3997 52.7444 84.665 54.0228C85.7944 55.164 87.661 55.5256 90.2117 55.0989C91.2909 54.9185 92.2555 54.8279 93.1028 54.8279L93.1045 54.827Z" fill="#B69DF8"/>
<path d="M43.5681 54.455C43.2828 54.455 42.9657 54.3626 42.6203 54.1778C41.6168 53.6421 39.1144 50.8832 36.8204 47.3607C35.2402 44.9343 32.6211 40.357 32.8287 36.9594C32.8561 36.5073 32.8808 36.0727 32.9047 35.653C33.1838 30.7502 33.3525 27.7907 36.7453 22.4225C37.6755 20.9498 38.1136 18.8675 38.0474 16.2335C38.0456 16.1772 38.0686 16.1227 38.1092 16.0839C40.4085 13.9057 42.9321 11.8893 45.6103 10.0929C45.6554 10.063 45.7101 10.0524 45.7631 10.063L45.8947 10.0902C47.7895 10.4782 51.3157 11.2005 55.1016 9.82543C57.6411 8.90258 59.126 8.24013 60.1082 7.80113C61.4314 7.21082 61.8775 7.01024 62.7379 7.14132C64.311 7.37973 65.6272 8.55596 65.4982 9.60989C65.3012 11.2172 63.5311 12.0318 60.2345 12.0318C58.2992 12.0318 56.5705 13.0268 55.6104 14.6939C55.0071 15.7417 54.8525 16.8722 55.2252 17.5083C55.5962 18.1408 55.9019 18.4346 56.2808 18.5235C56.9406 18.6792 57.9503 18.2411 60.0066 16.9065C63.8349 14.423 65.6166 16.6056 65.9355 17.0684C66.4027 17.7467 65.8463 18.9326 65.258 20.188C64.9983 20.7413 64.7297 21.3132 64.5469 21.8463C64.2254 22.7797 64.2307 23.655 64.2351 24.358C64.2386 24.9421 64.2413 25.4031 64.0619 25.7286C63.8005 26.2045 62.9339 26.5318 61.7362 26.9858C61.0949 27.2286 60.3688 27.5031 59.6118 27.847C57.324 28.886 55.7508 29.7086 54.7597 31.6088C54.1105 32.8546 52.9224 33.5891 51.9676 34.1795C51.3448 34.5648 50.8078 34.8973 50.6391 35.2413C50.4871 35.5519 50.4465 36.1404 50.4032 36.7641C50.3175 37.9993 50.2204 39.3999 49.2681 39.9268C48.0412 40.6051 45.6704 39.6356 44.7314 38.6767C44.3233 38.2597 43.7713 38.0776 43.2527 38.1876C42.827 38.2782 42.4913 38.5553 42.3544 38.9266C41.9295 40.0852 42.2034 41.652 43.1697 43.5831C44.5327 46.3068 45.2234 48.6328 45.2234 50.4961C45.2234 52.6269 44.8763 53.8699 44.1617 54.2949C43.9815 54.4022 43.7819 54.4558 43.5637 54.4558L43.5681 54.455ZM38.4528 16.3127C38.5093 18.9853 38.05 21.1126 37.0872 22.6354C33.75 27.9165 33.5928 30.6719 33.3075 35.675C33.2836 36.0947 33.2589 36.5301 33.2306 36.9832C32.8738 42.8133 40.9747 52.8442 42.8102 53.8251C43.2854 54.0784 43.6723 54.1215 43.9594 53.95C44.3542 53.7142 44.8259 52.9242 44.8259 50.4943C44.8259 48.6935 44.1493 46.4273 42.8137 43.759C41.7962 41.7259 41.5161 40.0526 41.9808 38.7867C42.1654 38.2852 42.6106 37.914 43.1715 37.7943C43.8251 37.6536 44.5168 37.8797 45.022 38.3952C45.9504 39.3444 48.1251 40.101 49.0756 39.5749C49.837 39.1535 49.9262 37.8682 50.0048 36.7342C50.0525 36.0428 50.094 35.4445 50.2804 35.0636C50.4995 34.6158 51.0825 34.2551 51.7573 33.8372C52.6698 33.2724 53.8057 32.5695 54.4046 31.4214C55.5335 29.2573 57.5227 28.3538 59.4466 27.4802C60.2151 27.1309 60.9483 26.8538 61.5948 26.6092C62.6283 26.2177 63.5205 25.8799 63.7113 25.5342C63.8402 25.3002 63.8376 24.8638 63.8349 24.358C63.8305 23.6243 63.8252 22.712 64.1688 21.7143C64.3587 21.161 64.6317 20.5795 64.8958 20.0164C65.4108 18.9176 65.9434 17.7819 65.606 17.2918C65.3242 16.8828 63.7431 14.9588 60.2275 17.2391C58.0386 18.659 56.9822 19.098 56.1898 18.9097C55.5724 18.7645 55.1811 18.22 54.8799 17.7071C54.4294 16.9399 54.5804 15.6784 55.2632 14.4916C56.2958 12.6987 58.1543 11.6289 60.2354 11.6289C63.2961 11.6289 64.9329 10.9322 65.1007 9.55799C65.2014 8.7363 64.0019 7.73339 62.6787 7.53281C61.9349 7.41932 61.5498 7.59175 60.2734 8.16183C59.2858 8.60258 57.793 9.26943 55.2403 10.1967C51.3466 11.6113 47.7479 10.8741 45.8144 10.4782L45.7658 10.4685C43.1573 12.2245 40.6964 14.189 38.451 16.31L38.4528 16.3127Z" fill="#B69DF8"/>
<path d="M112.716 91.3885C112.697 91.3885 112.678 91.3859 112.66 91.3806C112.59 91.3603 112.537 91.3048 112.52 91.2343C112.238 90.0347 112.241 88.4975 112.245 87.2626V86.8959C112.245 84.7206 114.412 83.4152 115.707 82.636C117.084 81.8075 119.158 79.5352 119.241 77.2893C119.317 75.233 120.404 74.3489 121.362 73.568C121.574 73.3961 121.774 73.233 121.962 73.0603C123.006 72.0995 123.386 69.5416 123.138 67.7233C122.854 65.6317 123.403 65.0341 124.513 64.6621C124.963 64.5114 125.163 63.9675 125.34 63.4872C125.528 62.9768 125.739 62.396 126.304 62.5238C126.623 62.5952 127.044 63.0147 127.461 65.6546C127.465 65.681 127.464 65.7075 127.457 65.733C125.109 75.4674 120.06 84.3204 112.856 91.3339C112.818 91.3709 112.768 91.3912 112.716 91.3912V91.3885ZM126.169 62.9081C125.999 62.9081 125.895 63.139 125.717 63.6238C125.519 64.1606 125.273 64.8287 124.64 65.0411C123.674 65.3646 123.285 65.8212 123.536 67.6686C123.802 69.6289 123.388 72.2917 122.234 73.3538C122.038 73.5345 121.824 73.709 121.616 73.8773C120.68 74.6389 119.711 75.4269 119.642 77.3025C119.553 79.722 117.409 82.0781 115.914 82.978C114.613 83.7616 112.647 84.9462 112.647 86.895V87.2635C112.643 88.3564 112.641 89.6909 112.839 90.7883C119.839 83.8779 124.752 75.2039 127.057 65.6766C126.636 63.0376 126.232 62.9178 126.215 62.9142C126.199 62.9107 126.184 62.9089 126.169 62.9089V62.9081Z" fill="#B69DF8"/>
<path d="M106.06 11.1842C106.06 15.0104 99.9805 24.204 98.5241 26.3526C98.3748 26.5731 98.052 26.5722 97.9019 26.3526C96.8582 24.814 93.4462 19.6645 91.5919 15.4594C90.8563 13.7913 90.3658 12.2711 90.3658 11.1851C90.3658 6.83899 93.8791 3.3147 98.2134 3.3147C102.548 3.3147 106.061 6.83811 106.061 11.1851L106.06 11.1842Z" fill="#6750A4"/>
<path d="M101.64 11.8612C102.101 9.91664 100.892 7.96821 98.9385 7.50926C96.9854 7.0503 95.0284 8.25461 94.5675 10.1992C94.1065 12.1437 95.3161 14.0922 97.2692 14.5511C99.2223 15.0101 101.179 13.8057 101.64 11.8612Z" fill="white"/>
<path d="M125.561 113.174C125.561 113.174 130.363 95.0829 144.461 85.7521C144.932 85.4402 146.123 87.2901 146.615 86.9982C147.245 86.6261 147.182 84.1192 147.847 83.7837C150.315 82.5385 153.027 81.5652 156 80.9735C156 80.9735 155.238 86.8832 151.377 93.7706C151.086 94.2899 148.363 94.0607 148.035 94.5888C147.725 95.0881 149.814 96.3446 149.471 96.8483C145.031 103.361 137.669 110.089 125.561 113.174Z" fill="white"/>
<path d="M125.287 113.647C125.234 113.647 125.182 113.626 125.144 113.588C125.094 113.537 125.074 113.464 125.092 113.395C125.104 113.348 126.335 108.708 129.28 102.969C132 97.6694 136.783 90.3182 144.119 85.3931C144.489 85.1441 144.952 85.5792 145.443 86.04C145.66 86.2447 146.171 86.725 146.287 86.655C146.52 86.515 146.669 85.7742 146.789 85.1796C146.953 84.3661 147.107 83.597 147.533 83.3799C150.133 82.0489 152.9 81.0813 155.758 80.5035C155.822 80.492 155.887 80.5088 155.935 80.5531C155.983 80.5974 156.006 80.6621 155.998 80.7259C155.99 80.7862 155.184 86.8543 151.341 93.8113C151.153 94.1506 150.53 94.2277 149.529 94.327C148.959 94.3828 148.099 94.4679 147.986 94.6513C147.915 94.7674 148.467 95.3265 148.675 95.5365C149.196 96.0629 149.687 96.5609 149.421 96.9561C143.776 105.356 135.673 110.969 125.338 113.64C125.321 113.644 125.304 113.646 125.287 113.646V113.647ZM144.369 85.721C144.359 85.721 144.35 85.7228 144.344 85.7272C131.481 94.3642 126.318 110.624 125.577 113.161C135.651 110.481 143.559 104.955 149.085 96.7328C149.168 96.6105 148.621 96.0567 148.387 95.8201C147.861 95.2875 147.406 94.8276 147.641 94.4422C147.844 94.1108 148.474 94.0266 149.489 93.9265C150.014 93.8751 150.892 93.7882 150.986 93.6181C154.323 87.5783 155.348 82.2226 155.554 80.9581C152.834 81.5341 150.198 82.4698 147.717 83.7396C147.464 83.869 147.309 84.6399 147.184 85.2602C147.022 86.0701 146.881 86.7693 146.495 87.0014C146.117 87.2283 145.655 86.7941 145.164 86.3351C144.981 86.1623 144.512 85.7228 144.368 85.7228L144.369 85.721Z" fill="#6750A4"/>
<path d="M133.231 93.68C133.29 93.079 130.569 93.0422 130.607 92.4561C130.644 91.8779 133.598 90.0574 133.616 89.495C133.981 78.4643 130.903 70.5559 130.903 70.5559C127.429 73.3988 124.642 76.5956 122.417 79.986C122.061 80.5274 123.526 83.2389 123.198 83.7899C122.839 84.3944 120.479 83.4684 120.153 84.0817C115.33 93.1429 114.185 102.54 114.146 110.637C118.305 112.32 122.424 113.464 126.477 114.121C130.819 106.841 132.594 100.181 133.231 93.6817V93.68Z" fill="white"/>
<path d="M126.425 114.121C126.415 114.121 126.403 114.121 126.393 114.118C122.338 113.446 118.26 112.268 114.269 110.616C114.194 110.586 114.145 110.512 114.146 110.431C114.195 100.012 116.128 91.281 120.054 83.7381C120.278 83.308 120.986 83.3932 121.736 83.4836C122.212 83.5406 122.932 83.6266 123.042 83.4379C123.155 83.244 122.846 82.3286 122.641 81.7231C122.276 80.6392 122.063 79.9582 122.28 79.6195C124.583 76.0327 127.394 72.84 130.634 70.1282C130.683 70.087 130.749 70.0729 130.811 70.0887C130.873 70.1054 130.923 70.1502 130.946 70.2107C130.976 70.2906 133.971 78.2969 133.617 89.2608C133.606 89.6162 133.053 90.0858 132.078 90.8861C131.527 91.3381 130.693 92.0209 130.669 92.2341C130.722 92.3719 131.42 92.5395 131.794 92.6299C132.594 92.823 133.285 92.9897 133.239 93.4654C132.521 100.952 130.41 107.483 126.596 114.022C126.56 114.084 126.495 114.121 126.425 114.121ZM114.543 110.299C118.423 111.893 122.385 113.039 126.323 113.702C130.064 107.255 132.137 100.809 132.845 93.4285C132.795 93.282 132.085 93.1108 131.703 93.0178C130.92 92.8291 130.245 92.6668 130.275 92.2078C130.297 91.8497 130.88 91.3539 131.829 90.5763C132.373 90.1305 133.195 89.4556 133.222 89.2459C133.537 79.4799 131.178 72.0835 130.671 70.6179C127.553 73.2639 124.842 76.3645 122.613 79.8362C122.488 80.0293 122.806 80.971 123.016 81.5941C123.371 82.6446 123.578 83.3045 123.384 83.6389C123.143 84.0531 122.438 83.9689 121.69 83.8794C121.217 83.8223 120.501 83.7372 120.405 83.9232C116.525 91.3758 114.608 100.004 114.543 110.299Z" fill="#6750A4"/>
<path d="M121.512 109.384C121.502 109.384 121.491 109.384 121.481 109.383C121.354 109.368 121.265 109.268 121.283 109.16C121.817 105.818 122.461 102.442 123.198 99.1287C123.222 99.0216 123.343 98.951 123.47 98.9711C123.595 98.9911 123.678 99.0947 123.655 99.2027C122.919 102.51 122.276 105.878 121.742 109.214C121.726 109.313 121.627 109.385 121.512 109.385V109.384Z" fill="white"/>
<path d="M124.34 94.7058C124.325 94.7058 124.311 94.7041 124.296 94.7015C124.185 94.6789 124.115 94.5737 124.139 94.4667C125.383 88.9121 126.898 83.3418 128.642 77.9134L129.44 75.4304C129.473 75.3261 129.588 75.2678 129.697 75.3C129.805 75.3322 129.866 75.4426 129.832 75.547L129.035 78.0299C127.293 83.4479 125.782 89.006 124.54 94.5502C124.52 94.6432 124.435 94.7058 124.34 94.7058Z" fill="#6750A4"/>
<path d="M124.61 113.785C124.61 113.785 134.002 97.9515 151.244 105.069C151.244 105.069 141.931 117.884 124.61 113.785Z" fill="white"/>
<path d="M131.134 114.594C129.017 114.594 126.733 114.363 124.292 113.814C124.228 113.8 124.176 113.757 124.15 113.7C124.125 113.642 124.13 113.577 124.163 113.523C124.187 113.484 126.635 109.621 131.215 106.663C135.449 103.927 142.421 101.421 151.593 105.009C151.651 105.031 151.695 105.079 151.712 105.137C151.729 105.195 151.717 105.258 151.68 105.306C151.655 105.337 149.226 108.467 144.658 111.062C141.563 112.82 136.988 114.592 131.134 114.592V114.594ZM124.665 113.496C133.59 115.419 140.343 113.06 144.451 110.727C148.285 108.55 150.581 106 151.189 105.276C142.313 101.897 135.566 104.328 131.455 106.981C127.585 109.478 125.26 112.63 124.665 113.497V113.496Z" fill="#6750A4"/>
<path d="M130.045 112.226C129.973 112.226 129.904 112.19 129.867 112.126C129.812 112.032 129.848 111.914 129.946 111.862C135.358 108.989 146.131 106.574 146.239 106.55C146.348 106.523 146.457 106.591 146.483 106.695C146.508 106.8 146.44 106.905 146.331 106.929C146.224 106.953 135.506 109.356 130.143 112.202C130.112 112.219 130.078 112.226 130.045 112.226Z" fill="#6750A4"/>
<path d="M112.244 113.174H123.659L123.659 11.3648H112.244L112.244 113.174Z" fill="#6750A4"/>
<path d="M87.5122 36.9352V47.8264L148.39 47.8264V36.9352H87.5122Z" fill="#6750A4"/>
<path d="M36.9482 145.847L36.1493 154.13C36.1224 154.363 36.282 154.576 36.4935 154.589L40.7069 154.844C40.8887 154.854 41.0446 154.711 41.0706 154.512L41.8537 146.985L36.9491 145.847H36.9482Z" fill="white"/>
<path d="M40.6086 154.842C40.5982 154.842 40.5878 154.842 40.5783 154.842L36.6549 154.598C36.514 154.59 36.3844 154.522 36.2885 154.408C36.1814 154.28 36.1313 154.11 36.1503 153.94L36.8942 146.025C36.8994 145.969 36.9288 145.917 36.9754 145.884C37.0212 145.85 37.08 145.839 37.1353 145.853L41.7024 146.94C41.7983 146.963 41.8622 147.054 41.8527 147.152L41.1235 154.349C41.0872 154.638 40.8686 154.844 40.6077 154.844L40.6086 154.842ZM37.2649 146.288L36.5417 153.981C36.5339 154.047 36.5521 154.111 36.5892 154.155C36.6039 154.172 36.635 154.202 36.6782 154.205L40.6017 154.448C40.6665 154.456 40.7226 154.39 40.733 154.303L41.4441 147.283L37.264 146.288H37.2649Z" fill="#6750A4"/>
<path d="M35.7827 151.943C35.521 152.91 34.9707 155.637 34.7402 157.277C34.5955 158.306 35.2246 159.28 36.1873 159.55C38.9101 160.311 45.4179 160.278 50.8365 160.525C51.2074 160.542 51.892 160.355 52.1953 159.425C53.2265 156.273 47.5314 155.297 41.9023 152.092C41.7914 152.029 41.657 152.035 41.5539 152.111C41.4889 152.158 41.4066 152.217 41.3096 152.281C40.3303 152.925 38.703 152.926 37.7081 152.308L36.5851 151.61C36.2775 151.419 35.8788 151.583 35.7818 151.943H35.7827Z" fill="white"/>
<path d="M51.1062 160.526C51.0866 160.526 51.0678 160.526 51.0491 160.526C49.6202 160.465 48.0966 160.422 46.623 160.379C42.1978 160.252 38.0174 160.133 35.9071 159.585C34.8095 159.299 34.1039 158.273 34.2674 157.195C34.504 155.634 35.0685 153.027 35.3471 152.068C35.4123 151.844 35.5775 151.667 35.8008 151.582C36.0232 151.497 36.2687 151.516 36.475 151.635L37.6325 152.303C38.597 152.859 40.1983 152.849 41.1306 152.28C41.2271 152.221 41.3092 152.167 41.3735 152.123C41.5432 152.007 41.7638 151.996 41.9487 152.093C43.7 153.019 45.471 153.754 47.0329 154.403C50.7588 155.952 53.4514 157.07 52.6513 159.341C52.3414 160.219 51.6394 160.526 51.1071 160.526L51.1062 160.526ZM36.083 151.92C36.0392 151.92 35.9946 151.929 35.9517 151.944C35.8472 151.984 35.7695 152.068 35.7383 152.173C35.4623 153.121 34.9032 155.703 34.6693 157.252C34.5353 158.134 35.1131 158.976 36.0133 159.209C38.0772 159.745 42.2345 159.864 46.6346 159.99C48.1091 160.032 49.6345 160.076 51.066 160.137C51.2107 160.142 51.9448 160.127 52.2654 159.217C52.946 157.287 50.398 156.228 46.8713 154.762C45.3004 154.109 43.5196 153.37 41.7522 152.436C41.7058 152.411 41.6504 152.414 41.6093 152.442C41.5405 152.489 41.4521 152.547 41.3485 152.611C40.284 153.261 38.5229 153.273 37.4235 152.639L36.2661 151.971C36.2098 151.938 36.1464 151.922 36.083 151.922V151.92Z" fill="#6750A4"/>
<path d="M34.2696 158.145C34.2643 158.173 34.2607 158.192 34.259 158.201C34.1112 159.206 35.0767 159.824 35.9998 160.252C38.739 161.524 49.8028 160.795 50.2303 160.767C50.2392 160.767 50.2454 160.767 50.2542 160.767C50.3923 160.769 51.7959 160.769 52.2013 159.906C52.2517 159.798 52.2827 159.648 52.3013 159.507C52.3323 159.276 52.3163 159.042 52.265 158.814C52.2234 158.629 52.0384 158.513 51.8535 158.559C49.8002 159.078 45.0051 159.251 40.2135 158.729C37.0282 158.383 35.6441 157.696 34.9059 157.259C34.705 157.14 34.4475 157.256 34.4015 157.485C34.3634 157.677 34.3165 157.909 34.2696 158.146V158.145Z" fill="white"/>
<path d="M43.5325 161C40.5327 161 37.4228 160.833 36.1237 160.222C35.2414 159.807 34.0881 159.116 34.2614 157.92C34.2631 157.908 34.2676 157.885 34.2738 157.853L34.4062 157.179C34.4408 157.004 34.5581 156.857 34.719 156.785C34.8789 156.713 35.0637 156.725 35.2139 156.815C35.9949 157.284 37.3881 157.945 40.4608 158.285C45.4366 158.834 50.1584 158.609 52.075 158.117C52.2171 158.08 52.3637 158.103 52.4881 158.179C52.6143 158.257 52.7023 158.381 52.7352 158.528C52.7947 158.793 52.808 159.055 52.7751 159.304C52.7494 159.5 52.7094 159.656 52.6579 159.769C52.1994 160.762 50.6888 160.765 50.5165 160.764C50.2605 160.781 46.9685 160.999 43.5316 160.999L43.5325 161ZM34.6701 157.932L34.6612 157.981C34.5572 158.696 35.0619 159.275 36.2952 159.856C38.9875 161.124 50.0144 160.392 50.4827 160.36C50.4978 160.36 50.5093 160.358 50.5244 160.359C50.5804 160.357 51.9337 160.373 52.2918 159.599C52.3158 159.547 52.3495 159.444 52.3753 159.251C52.4019 159.048 52.3904 158.835 52.3415 158.616C52.3326 158.577 52.3095 158.545 52.2776 158.524C52.2473 158.506 52.2109 158.5 52.1763 158.509C50.225 159.01 45.4411 159.243 40.4181 158.687C37.2664 158.339 35.8208 157.65 35.0077 157.163C34.9553 157.13 34.9073 157.144 34.8833 157.154C34.8407 157.173 34.8114 157.211 34.8025 157.258L34.6701 157.932Z" fill="#6750A4"/>
<path d="M42.5134 154.844C42.4576 154.844 42.4033 154.821 42.3669 154.777C42.3054 154.702 42.3208 154.596 42.4017 154.538L43.9359 153.458C44.0168 153.402 44.1326 153.416 44.1941 153.491C44.2555 153.565 44.2402 153.672 44.1593 153.729L42.6251 154.809C42.5919 154.832 42.5522 154.843 42.5134 154.843V154.844Z" fill="#6750A4"/>
<path d="M44.4364 155.791C44.3743 155.791 44.3131 155.765 44.2726 155.715C44.205 155.631 44.223 155.512 44.3131 155.449L45.8069 154.409C45.8979 154.346 46.0258 154.363 46.0933 154.446C46.1608 154.531 46.1428 154.649 46.0528 154.712L44.5589 155.753C44.522 155.779 44.4788 155.79 44.4364 155.79V155.791Z" fill="#6750A4"/>
<path d="M24.9333 71.5029C24.9333 71.5029 21.7396 77.8696 20.6653 84.5761C19.6654 90.8209 15.9869 116.531 7.02374 137.153C6.00794 139.491 7.18063 141.924 9.68025 142.466C10.6801 142.684 11.0994 142.329 11.9645 141.909C12.4103 141.693 13.1505 141.055 13.1505 141.055C13.1505 141.055 29.0178 127.846 35.4875 93.1871C39.6491 70.8946 38.9569 72.6631 38.9569 72.6631L24.9333 71.5029Z" fill="white"/>
<path d="M10.4536 142.532C10.2714 142.532 10.0715 142.51 9.84407 142.462C8.60107 142.194 7.62017 141.475 7.08086 140.438C6.53266 139.382 6.51755 138.094 7.0391 136.905C15.494 117.607 19.2603 93.7709 20.498 85.938C20.5744 85.4542 20.6411 85.0302 20.6997 84.6711C21.7694 78.048 24.9645 71.6768 24.9965 71.6136C25.0338 71.5407 25.1128 71.4959 25.1937 71.5038L39.1564 72.6495C39.2079 72.6214 39.2657 72.6179 39.3154 72.6311C39.5313 72.6917 39.5962 72.7101 39.0746 75.962C38.5291 79.3649 37.4798 85.1988 35.9551 93.3003C32.5993 111.134 26.6775 123.151 22.3008 130.093C17.5518 137.625 13.5358 140.983 13.4958 141.016C13.4674 141.041 12.7317 141.668 12.2661 141.892C12.1293 141.958 12.004 142.022 11.8849 142.083C11.3936 142.334 11.0044 142.532 10.4536 142.532ZM25.2977 71.9121C24.8543 72.8199 22.076 78.6731 21.0977 84.7334C21.04 85.0925 20.9734 85.5157 20.8969 85.9986C19.6575 93.8438 15.8858 117.717 7.4096 137.063C6.93603 138.143 6.94758 139.306 7.43981 140.255C7.92226 141.185 8.80631 141.83 9.92937 142.071C10.7006 142.236 11.0764 142.045 11.6984 141.727C11.8192 141.666 11.948 141.6 12.0884 141.532C12.5069 141.331 13.2257 140.718 13.2328 140.712C13.2754 140.676 17.2532 137.347 21.9694 129.861C26.323 122.952 32.2146 110.986 35.5571 93.2275C38.5735 77.1972 39.0311 73.7592 39.072 73.0429L25.2968 71.9121H25.2977Z" fill="#6750A4"/>
<path d="M29.4966 74.8176C29.4966 74.8176 27.663 86.8545 31.1305 95.7597C34.4646 104.322 36.5931 137.892 35.3509 147.59C35.2724 148.2 35.6929 148.758 36.2983 148.844C37.8144 149.058 40.5492 149.35 42.4204 148.997C42.765 148.932 43.0406 148.679 43.127 148.337C44.3622 143.416 54.6035 98.937 47.3823 76.144L29.4975 74.8194L29.4966 74.8176Z" fill="white"/>
<path d="M40.5432 149.162C39.0427 149.162 37.4782 148.982 36.4854 148.842C35.7754 148.741 35.2737 148.078 35.3656 147.364C36.5764 137.94 34.5698 104.36 31.1423 95.5796C27.6833 86.7172 29.4728 74.634 29.4912 74.5135C29.5069 74.4106 29.6006 74.3368 29.7021 74.3447L47.6513 75.6707C47.7327 75.6768 47.8019 75.7313 47.8264 75.8096C50.8783 85.4176 51.2329 99.8599 48.8813 118.737C46.8581 134.981 43.5917 148.056 43.5593 148.186C43.4551 148.598 43.1163 148.916 42.6943 148.995C42.0499 149.116 41.3049 149.162 40.5441 149.162H40.5432ZM29.858 74.7571C29.6487 76.3011 28.3241 87.2668 31.5118 95.4336C34.955 104.254 36.9739 137.96 35.7596 147.415C35.6957 147.913 36.0459 148.376 36.5405 148.446C38.0131 148.654 40.7612 148.951 42.6199 148.601C42.8939 148.55 43.1058 148.353 43.1723 148.087C43.2047 147.957 46.465 134.907 48.4856 118.687C50.8197 99.9523 50.4835 85.6119 47.4867 76.0593L29.858 74.7571Z" fill="#6750A4"/>
<path d="M33.0822 105.597C32.9721 105.597 32.8795 105.515 32.8721 105.409C32.8693 105.366 32.5788 101.094 30.4337 96.3379C29.772 94.8691 29.2936 93.1213 29.0141 91.1428C28.9984 91.034 29.0798 90.9331 29.1946 90.9191C29.3084 90.9059 29.4158 90.9814 29.4306 91.0902C29.7054 93.0336 30.1727 94.7463 30.8205 96.1817C32.9952 101.006 33.2895 105.343 33.2922 105.386C33.2997 105.496 33.2108 105.591 33.0951 105.597C33.0905 105.597 33.0868 105.597 33.0822 105.597Z" fill="white"/>
<path d="M37.9146 93.2853C37.2526 93.2853 36.594 93.0783 36.0418 92.6751L33.9018 91.1109C33.1914 90.5913 32.7561 89.7856 32.7095 88.901L32.3429 82.018C32.3271 81.7205 32.4431 81.4345 32.6603 81.2337C32.8783 81.0321 33.1711 80.9406 33.4639 80.9841C35.3138 81.2551 39.004 81.6468 42.9377 81.2257C43.2094 81.1964 43.482 81.2835 43.6877 81.4647C43.8926 81.645 44.0139 81.9052 44.0227 82.1788L44.2302 88.7509C44.268 89.9402 43.5971 91.0229 42.5218 91.5097L39.2159 93.0055C38.8009 93.1929 38.356 93.2853 37.9137 93.2853H37.9146ZM33.3224 81.3776C33.1782 81.3776 33.0384 81.4318 32.9302 81.5313C32.801 81.6503 32.7324 81.82 32.7421 81.9958L33.1087 88.8788C33.1492 89.6409 33.5237 90.3355 34.1365 90.7831L36.2766 92.3473C37.082 92.9362 38.1467 93.0472 39.0541 92.636L42.36 91.1402C43.2868 90.721 43.8644 89.7883 43.8319 88.7633L43.6244 82.1912C43.6191 82.0269 43.5488 81.8768 43.4257 81.7684C43.3017 81.6601 43.1434 81.6103 42.9808 81.6272C39.0031 82.0536 35.2751 81.6583 33.4076 81.3838C33.3795 81.3794 33.3514 81.3776 33.3232 81.3776H33.3224Z" fill="white"/>
<path d="M21.0804 91.8638C20.8739 91.8638 20.6683 91.8004 20.4922 91.6761L19.1102 90.6973C19.019 90.632 18.9966 90.506 19.0619 90.4139C19.1262 90.3227 19.2532 90.3003 19.3453 90.3656L20.7273 91.3445C20.9132 91.4759 21.1546 91.4938 21.3584 91.391L25.0592 89.5101C25.2443 89.4162 25.3676 89.2366 25.39 89.0309L26.2249 81.3252C26.2598 80.9998 26.0345 80.7048 25.71 80.6547L21.2028 79.9565C21.092 79.9395 21.016 79.8358 21.033 79.725C21.05 79.6141 21.1537 79.5391 21.2645 79.5551L25.7717 80.2533C26.3107 80.3365 26.6871 80.8272 26.6281 81.369L25.7931 89.0747C25.7556 89.418 25.55 89.7166 25.2425 89.873L21.5407 91.7539C21.395 91.8281 21.2368 91.8647 21.0795 91.8647L21.0804 91.8638Z" fill="white"/>
<path d="M9.83875 146.328C10.321 143.906 10.5298 143.408 11.6874 141.54C12.548 140.152 10.4573 138.059 9.39318 137.898C7.61789 137.531 7.90183 138.096 5.87056 140.711L4.28049 142.676C4.28049 142.676 9.41677 148.444 9.83875 146.327V146.328Z" fill="white"/>
<path d="M9.22429 146.794C7.72737 146.794 4.26328 143.126 3.85674 142.691C3.78943 142.618 3.78764 142.511 3.85136 142.436L5.40212 140.62C5.97648 139.914 6.33814 139.354 6.65853 138.839C6.71686 138.746 6.8416 138.716 6.93853 138.772C7.03545 138.827 7.06686 138.948 7.00853 139.041C6.68096 139.565 6.31212 140.138 5.72071 140.865L4.27764 142.554C5.83558 144.204 8.47493 146.607 9.30595 146.394C9.34993 146.382 9.4657 146.351 9.51775 146.104C9.96108 143.977 10.1154 143.36 11.0353 141.885C11.0936 141.792 11.2184 141.762 11.3153 141.817C11.4122 141.873 11.4436 141.993 11.3853 142.086C10.4968 143.51 10.3586 144.064 9.91711 146.182C9.83364 146.582 9.59672 146.724 9.41275 146.772C9.35441 146.787 9.2907 146.794 9.22339 146.794H9.22429Z" fill="#6750A4"/>
<path d="M10.3357 145.396L8.18814 142.334C7.18601 140.905 5.05488 140.692 3.75887 141.891L1.301 143.84C1.301 143.84 0.830964 145.181 0.980644 146.046C1.17505 147.172 1.55838 148.778 2.29948 150.368C3.44034 152.816 6.59824 157.733 7.72267 159.461C7.95814 159.823 8.54774 160.181 8.95845 160.008C9.44582 159.802 9.95054 159.431 10.4388 158.998C11.1936 158.329 10.9408 155.199 10.6697 153.02C10.4963 151.624 10.625 148.059 10.6889 146.59C10.7072 146.167 10.5839 145.749 10.3357 145.396Z" fill="white"/>
<path d="M8.60927 160.526C8.15627 160.526 7.68575 160.156 7.4816 159.82C6.27419 157.832 3.34768 152.937 2.26294 150.442C1.53306 148.766 1.16331 147.073 0.981934 145.948C0.832103 145.02 1.27809 143.642 1.29737 143.583C1.30876 143.548 1.32979 143.517 1.3587 143.492L3.71831 141.487C4.34304 140.868 5.21486 140.561 6.09895 140.655C6.98391 140.75 7.77249 141.234 8.26404 141.985L10.3257 145.134C10.5886 145.536 10.7174 146.002 10.6981 146.483C10.6377 147.988 10.5141 151.645 10.6789 153.066C11.3106 158.515 10.6219 159.17 10.395 159.385C9.84383 159.908 9.36105 160.26 8.91857 160.461C8.81868 160.506 8.71441 160.526 8.60839 160.526H8.60927ZM1.65924 143.763C1.58038 144.021 1.25706 145.147 1.37535 145.882C1.55322 146.984 1.91421 148.641 2.62744 150.279C3.73321 152.82 6.88227 158.062 7.82156 159.608C8.01608 159.928 8.48572 160.215 8.75647 160.093C9.15777 159.911 9.60463 159.583 10.1225 159.091C10.4099 158.819 10.812 157.679 10.2828 153.113C10.1146 151.664 10.239 147.982 10.3003 146.467C10.3161 146.072 10.2101 145.688 9.99454 145.358L7.93284 142.208C7.50701 141.558 6.82357 141.138 6.05777 141.056C5.29109 140.972 4.53668 141.239 3.98643 141.785L1.65924 143.763V143.763Z" fill="#6750A4"/>
<path d="M10.2826 149.162C10.2667 149.162 10.2508 149.159 10.2349 149.155L8.21838 148.582C8.12205 148.555 8.06553 148.452 8.0918 148.352C8.11807 148.253 8.21758 148.194 8.31391 148.221L10.3304 148.795C10.4267 148.822 10.4832 148.925 10.457 149.024C10.4347 149.107 10.3622 149.162 10.2826 149.162Z" fill="#6750A4"/>
<path d="M10.2465 151.056C10.2274 151.056 10.2083 151.053 10.1892 151.049L7.76937 150.476C7.65378 150.449 7.58595 150.346 7.61748 150.247C7.649 150.147 7.76746 150.088 7.88401 150.116L10.3038 150.689C10.4194 150.716 10.4872 150.819 10.4557 150.918C10.4289 151.002 10.342 151.056 10.2465 151.056Z" fill="#6750A4"/>
<path d="M8.06878 160.526C8.30163 160.526 8.52274 160.49 8.7249 160.422C9.4072 160.19 11.1147 159.689 10.9243 157.278C10.7267 154.779 8.7971 153.506 7.3883 151.866C6.31342 150.614 6.42172 145.381 6.08328 144.355C5.61398 142.931 4.02287 142.171 2.62399 142.702C2.21877 142.856 1.6908 143.369 1.38305 143.696C0.51755 144.616 0.415568 146.611 0.499501 148.079C0.657438 150.827 2.29728 156.298 4.37033 158.94C5.38204 160.23 6.94156 160.526 8.06878 160.526V160.526Z" fill="white"/>
<path d="M7.84538 160.526C6.88568 160.526 5.10428 160.313 3.96207 158.898C1.78571 156.203 0.176819 150.742 0.0242828 148.166C-0.0474455 146.949 -0.0202069 144.755 0.967645 143.735C1.33355 143.357 1.86107 142.872 2.29326 142.713C3.02053 142.445 3.81408 142.476 4.52863 142.801C5.24683 143.128 5.79886 143.73 6.04401 144.452C6.16749 144.816 6.23014 145.619 6.30913 146.635C6.45168 148.466 6.6478 150.972 7.31786 151.73C7.6411 152.095 7.99974 152.45 8.34657 152.794C9.53599 153.969 10.7654 155.185 10.9233 157.136C11.1222 159.58 9.37801 160.149 8.63258 160.393L8.57175 160.413C8.34294 160.488 8.0987 160.526 7.84448 160.526L7.84538 160.526ZM3.30108 142.927C3.01054 142.927 2.7209 142.979 2.44216 143.081C2.16614 143.183 1.7394 143.519 1.2709 144.003C0.353869 144.95 0.382016 147.214 0.437401 148.143C0.586305 150.669 2.1616 156.019 4.28894 158.655C5.324 159.938 6.96195 160.129 7.84629 160.129C8.05421 160.129 8.25396 160.098 8.43919 160.037L8.50093 160.017C9.21004 159.785 10.6873 159.303 10.5129 157.164C10.3659 155.356 9.24182 154.244 8.05149 153.067C7.70011 152.719 7.33602 152.359 7.00462 151.984C6.24739 151.128 6.0549 148.653 5.89874 146.663C5.82428 145.713 5.76073 144.891 5.65268 144.573C5.44294 143.954 4.96899 143.438 4.35249 143.157C4.01564 143.004 3.65882 142.926 3.30199 142.926L3.30108 142.927Z" fill="#6750A4"/>
<path d="M7.69324 160.526C7.43135 160.526 7.17031 160.51 6.9179 160.477C6.81021 160.463 6.73526 160.364 6.74904 160.256C6.76283 160.148 6.86362 160.074 6.96872 160.086C7.20391 160.117 7.44771 160.132 7.69324 160.132C8.15931 160.132 8.57713 159.958 8.83989 159.655C9.06474 159.395 9.15778 159.064 9.10695 158.698C8.78045 156.321 7.52525 155.11 6.07277 153.707C4.83222 152.51 4.53845 148.718 4.38166 146.681C4.34117 146.161 4.30671 145.712 4.27311 145.588C4.11632 145.01 3.3091 144.448 2.51135 144.359C2.08922 144.313 1.31216 144.367 0.844365 145.258C0.793536 145.354 0.675512 145.392 0.579886 145.34C0.48426 145.289 0.448077 145.171 0.498044 145.074C0.925345 144.261 1.65503 143.868 2.55443 143.968C3.51241 144.074 4.4523 144.754 4.65131 145.485C4.69266 145.638 4.72195 145.99 4.77278 146.65C4.91578 148.493 5.21214 152.33 6.345 153.423C7.85003 154.876 9.15003 156.13 9.49549 158.644C9.56096 159.119 9.4326 159.571 9.13538 159.914C8.79854 160.304 8.27303 160.526 7.69324 160.526Z" fill="#6750A4"/>
<path d="M32.8171 37.8824L34.1205 30.7794L39.9512 32.2679L39.1468 37.213L32.8171 37.8824Z" fill="white"/>
<path d="M32.5548 37.8824C32.4958 37.8824 32.4396 37.8596 32.3984 37.8185C32.3525 37.7721 32.3328 37.7091 32.345 37.647L33.7452 30.4685C33.7555 30.4142 33.7901 30.3661 33.8398 30.3372C33.8894 30.3075 33.9503 30.2987 34.0074 30.3118L40.2667 31.8163C40.3734 31.8417 40.4418 31.9397 40.424 32.0404L39.5605 37.0378C39.5455 37.1262 39.4687 37.1945 39.3732 37.2041L32.5782 37.8806C32.5707 37.8806 32.5632 37.8815 32.5557 37.8815L32.5548 37.8824ZM34.1226 30.7503L32.8152 37.457L39.1652 36.8251L39.9716 32.1568L34.1226 30.7503Z" fill="#6750A4"/>
<path d="M38.9718 20.8623C36.8541 21.1428 36.566 23.4766 34.0361 23.751C32.8766 23.8765 32.2943 23.4567 31.2669 23.938C30.587 24.2574 29.5968 25.0253 29.4957 26.0424C29.3672 27.3375 30.821 27.6171 32.3058 30.1102C33.3491 31.8606 33.4121 33.0327 34.2418 33.1599C35.0804 33.288 35.4553 32.1566 36.3825 32.2293C37.5819 32.3237 37.7388 34.2792 39.0055 34.8627C39.8033 35.2306 41.4752 35.1536 43.8349 33.4274C44.2169 33.1478 44.341 32.6405 44.1283 32.2233C43.8553 31.6883 43.5069 31.0139 43.1195 30.3967C41.2695 27.4561 39.9638 26.96 40.2217 26.058C40.6162 24.6764 43.2126 24.9326 43.4129 23.8211C43.6204 22.6672 41.1472 20.574 38.9727 20.8623H38.9718Z" fill="#6750A4"/>
<path d="M35.1961 26.9842L35.7884 26.6923C35.7884 26.6923 37.71 30.4862 38.4618 31.4574C39.2137 32.4295 42.5728 30.4553 42.5728 30.4553L42.6549 29.7549L43.0569 29.5071C43.1819 29.4303 43.2631 29.3042 43.278 29.1648C43.2929 29.0254 43.2407 28.8861 43.1343 28.7873C42.3237 28.0278 40.6036 26.3033 39.7678 24.6255C39.7678 24.6255 36.9404 24.4676 35.1951 26.9842H35.1961Z" fill="white"/>
<path d="M39.1685 31.7265C38.8149 31.7265 38.5188 31.6346 38.3371 31.4006C37.7033 30.5833 36.2487 27.7765 35.8675 27.0327L35.489 27.2183C35.4075 27.2584 35.3082 27.2417 35.2471 27.1773C35.1859 27.113 35.1779 27.0177 35.2276 26.9458C36.9304 24.4975 39.6392 24.6203 39.7536 24.6261C39.8271 24.6303 39.8927 24.6721 39.9238 24.7348C40.7171 26.3216 42.3968 27.9829 43.082 28.623C43.2265 28.7575 43.2974 28.9438 43.277 29.1344C43.2567 29.3249 43.1467 29.4945 42.9766 29.599L42.6743 29.7845L42.606 30.3586C42.5989 30.4162 42.5644 30.468 42.5121 30.4989C42.247 30.6544 40.3741 31.7256 39.1685 31.7256V31.7265ZM36.0173 26.5924C36.0173 26.5924 36.0209 26.5932 36.0227 26.594C36.0741 26.6108 36.1166 26.6459 36.1406 26.6918C36.1592 26.7277 37.9666 30.28 38.6624 31.1758C39.0693 31.7014 40.9555 30.9493 42.2169 30.2257L42.2843 29.6541C42.2905 29.5973 42.3242 29.5472 42.3747 29.5162L42.7567 29.2814C42.8241 29.2396 42.8684 29.1728 42.8764 29.0968C42.8844 29.0207 42.856 28.9463 42.7993 28.8929C41.9483 28.0982 40.4219 26.5514 39.6153 25.0038C39.1499 25.0105 37.3762 25.1375 36.0191 26.5915L36.0173 26.5924Z" fill="#6750A4"/>
<path d="M36.622 29.5664C36.622 29.5664 35.1043 27.8082 34.4055 28.6309C33.7067 29.4537 35.4286 31.3488 36.622 29.5664Z" fill="white"/>
<path d="M7.26545 82.0085L4.25004 81.447C4.25004 81.447 3.85809 84.9147 3.13646 85.6757C1.96064 86.9154 0.926858 87.4517 0.499843 88.1552C-1.9807 92.2428 5.61964 96.2243 4.81384 93.1285C4.15621 90.6014 5.12774 89.7372 5.12774 89.7372C6.23342 88.7553 7.83714 89.4605 7.84854 89.4389C8.45267 88.3151 7.76436 86.6136 7.30227 85.6999C7.0743 85.2489 6.98486 84.7387 7.03659 84.2338L7.26545 82.0076V82.0085Z" fill="white"/>
<path d="M4.38532 94.2323C3.52847 94.2323 2.24761 93.5879 1.29781 92.6109C-0.10785 91.1653 -0.386682 89.4994 0.53479 88.0425C0.781755 87.6515 1.19425 87.3267 1.71473 86.9166C2.16441 86.5621 2.67515 86.1607 3.22219 85.606C3.78074 85.0408 4.1835 82.539 4.29149 81.622C4.29769 81.568 4.3269 81.5184 4.37116 81.4861C4.41542 81.4539 4.47295 81.44 4.52695 81.4504L7.57108 81.9947C7.67465 82.013 7.74635 82.107 7.73484 82.2098L7.50381 84.3686C7.45512 84.8266 7.5401 85.2794 7.74989 85.6774C8.23585 86.5987 8.95285 88.3186 8.2987 89.4881C8.21726 89.6327 8.06413 89.5856 7.99154 89.5621C6.67971 89.1528 5.91668 89.482 5.50773 89.8312C5.50065 89.8373 4.63671 90.6411 5.25368 92.9174C5.4617 93.6837 5.13684 93.9946 4.92439 94.1121C4.77657 94.194 4.59245 94.2323 4.38355 94.2323H4.38532ZM4.66592 81.8771C4.56147 82.6739 4.1835 85.2019 3.51165 85.882C2.94602 86.4542 2.4034 86.8826 1.96701 87.2266C1.47574 87.6132 1.08803 87.9189 0.876469 88.2533C-0.283116 90.0872 0.988002 91.7217 1.58815 92.3392C2.71587 93.4982 4.20209 94.0599 4.72877 93.769C4.92528 93.6602 4.97131 93.4085 4.86686 93.021C4.17819 90.4808 5.20234 89.5708 5.2466 89.5334C5.72283 89.1276 6.58765 88.7383 8.01898 89.1572C8.45272 88.1488 7.82424 86.6736 7.39582 85.8611C7.14974 85.3935 7.04882 84.864 7.10636 84.3285L7.31792 82.3526L4.66681 81.878L4.66592 81.8771Z" fill="#6750A4"/>
<path d="M2.37805 84.2882L8.2938 84.0756C8.2938 84.0756 14.6526 64.3649 25.6829 57.148L24.2177 40.25C24.2177 40.25 4.10591 48.3822 2.37805 84.2882Z" fill="#6750A4"/>
<path d="M38.5244 36.9371C38.5244 36.9371 41.6875 65.5654 56.6913 65.8202C60.8561 65.8913 61.2155 57.0379 59.2505 49.165C58.9455 47.943 57.5659 45.8888 56.3205 46.0575C54.5045 46.3044 52.3117 47.7567 52.2433 47.1153C51.579 40.8643 46.7884 37.1216 40.357 37.0082L38.5244 36.9353V36.9371Z" fill="#6750A4"/>
<path d="M50.8923 45.144C49.2156 40.5567 42.8826 36.2538 37.9576 36.4696C35.9873 36.5559 33.903 36.8306 31.9557 37.4365L22.8132 40.2801L18.8583 70.2433C18.6696 71.6735 8.75012 116.174 10.1171 116.672C14.4975 118.269 35.2406 125.026 53.2693 118.293C54.6817 117.766 52.4879 74.2925 52.5262 72.799C52.6535 67.7766 54.5909 57.8059 53.1545 51.3288L50.8931 45.1431L50.8923 45.144Z" fill="#6750A4"/>
<path d="M53.9224 59.1903C53.9152 59.1903 53.908 59.1903 53.9009 59.1894C53.7889 59.1779 53.7074 59.0788 53.719 58.9691C54.0361 55.9285 53.5157 51.6821 52.3252 47.6092C52.2938 47.5021 52.3565 47.3907 52.464 47.3606C52.5715 47.3305 52.6853 47.3915 52.7157 47.4977C53.9376 51.6786 54.45 55.8754 54.123 59.0107C54.1123 59.1142 54.0236 59.1911 53.9206 59.1911L53.9224 59.1903Z" fill="white"/>
<path d="M39.9512 37.1574C39.9512 37.1574 32.1012 36.4172 25.8565 37.6393C22.1556 38.3639 15.1356 41.0657 20.4938 46.5173C25.8521 51.9689 29.5407 51.4503 31.3074 48.4002C33.0741 45.3501 36.2256 38.2949 39.9512 37.1574Z" fill="white"/>
<path d="M27.4455 51.1403C25.3408 51.1403 22.8105 49.6399 20.082 46.7651C18.388 44.9798 17.7605 43.3115 18.2181 41.8056C19.181 38.6378 24.5098 37.4077 25.5683 37.1936C31.791 35.9327 39.69 36.682 39.7687 36.6902C39.8643 36.6992 39.9404 36.7763 39.9502 36.8743C39.9599 36.9723 39.9015 37.063 39.8094 37.092C36.7835 38.0482 34.0682 43.2879 32.2716 46.7551C31.9025 47.4681 31.5538 48.1412 31.2511 48.681C30.4608 50.0934 29.3315 50.9326 27.9853 51.1067C27.8092 51.1294 27.6287 51.1412 27.4455 51.1412V51.1403ZM34.2204 36.8743C31.6087 36.8743 28.4544 37.0294 25.6471 37.5991C22.8309 38.1697 19.2969 39.6466 18.6031 41.929C18.1924 43.2789 18.788 44.8092 20.3714 46.4784C23.2451 49.5065 25.8612 50.9661 27.9358 50.6976C29.1527 50.5407 30.1785 49.7723 30.9033 48.476C31.2025 47.9417 31.5494 47.2713 31.9176 46.5619C33.5938 43.3278 36.0551 38.578 38.9085 37.0349C37.9553 36.9678 36.2525 36.8743 34.2222 36.8743H34.2204Z" fill="#6750A4"/>
<path d="M23.3641 43.0903C22.3672 43.0903 21.4437 42.7722 20.5282 42.0843C20.4405 42.0183 20.4253 41.8973 20.4951 41.8144C20.5649 41.7315 20.6929 41.7171 20.7806 41.7831C23.3087 43.6834 25.8779 42.5488 30.3408 39.4631C30.977 39.0231 31.5462 38.6593 32.033 38.3835C32.1297 38.3285 32.254 38.3581 32.3122 38.4495C32.3704 38.5409 32.3391 38.6585 32.2424 38.7135C31.7672 38.9834 31.2079 39.3404 30.5815 39.7745C27.5728 41.855 25.3275 43.0911 23.3633 43.0911L23.3641 43.0903Z" fill="#6750A4"/>
<path d="M55.6504 47.268C56.0592 46.9184 56.2117 46.3961 56.0705 45.9053C55.9669 45.5463 55.8821 45.0844 55.9075 44.5732C55.9659 43.4052 55.512 41.2335 54.3131 40.268C53.4307 39.5577 51.1233 39.0805 49.0862 39.4088C48.7924 39.4565 48.5456 39.6615 48.5155 39.9294C48.492 40.1404 48.5871 40.3922 49.0128 40.6082C49.7879 41.0021 50.1985 40.7061 50.7362 41.0106C51.4039 41.3883 52.6933 43.3193 51.8004 43.7735C50.9886 44.187 50.7136 42.3929 50.0732 42.0161C49.5628 41.7158 48.9516 41.8187 48.6445 42.284C48.1991 42.9586 50.5356 45.8143 51.5358 46.5152C51.9012 46.7721 52.3655 47.0996 52.8072 47.4118C53.6492 48.0072 54.8462 47.9562 55.6231 47.2927L55.6523 47.268H55.6504Z" fill="white"/>
<path d="M54.0385 48.2992C53.5499 48.2992 53.0605 48.14 52.6558 47.819C52.2385 47.4871 51.799 47.1389 51.4531 46.8667C50.5982 46.193 48.134 43.007 48.6663 42.1009C48.8294 41.8232 49.0808 41.6324 49.3732 41.5637C49.6826 41.4913 50.0124 41.5564 50.3031 41.7491C50.5901 41.939 50.7818 42.3459 50.9851 42.7764C51.1625 43.1526 51.3631 43.5785 51.561 43.6427C51.5922 43.6527 51.6421 43.6599 51.7277 43.6111C51.8044 43.5677 51.9069 43.48 51.9122 43.2295C51.9283 42.5259 51.1536 41.3078 50.7123 41.0265C50.5179 40.9026 50.3441 40.8936 50.1248 40.8818C49.8555 40.8673 49.5203 40.8493 49.0897 40.6033C48.5691 40.3058 48.4906 39.9377 48.5165 39.6818C48.553 39.3182 48.8437 39.0162 49.2226 38.9474C51.3087 38.5703 53.5036 39.1527 54.3416 39.9097C55.5273 40.9813 55.9775 43.3262 55.9187 44.6493C55.8991 45.0906 55.949 45.5464 56.0667 46.004C56.2209 46.6053 56.047 47.2375 55.6129 47.6544L55.5852 47.6806C55.1573 48.0921 54.5983 48.3001 54.0385 48.3001V48.2992ZM49.6229 41.9453C49.5694 41.9453 49.5168 41.9516 49.466 41.9634C49.2787 42.0077 49.1227 42.1271 49.0148 42.3107C48.7144 42.8225 50.6454 45.7091 51.7018 46.542C52.0486 46.8151 52.4882 47.1633 52.9063 47.4961C53.6186 48.0622 54.6509 48.0125 55.3071 47.3813L55.3347 47.355C55.6619 47.0412 55.7921 46.5628 55.6753 46.107C55.5478 45.6097 55.4934 45.1123 55.5148 44.6303C55.5683 43.4239 55.1466 41.1875 54.0724 40.2162C53.3021 39.5199 51.199 39.0062 49.2948 39.3517C49.0924 39.3879 48.9391 39.5416 48.9203 39.7234C48.9132 39.7966 48.8909 40.0173 49.2894 40.2452C49.638 40.4441 49.8965 40.4577 50.1471 40.4712C50.3922 40.4848 50.6454 40.4984 50.9289 40.6783C51.4674 41.0202 52.3393 42.3595 52.3197 43.2394C52.3099 43.6635 52.1021 43.8706 51.9292 43.9692C51.7643 44.0633 51.6002 44.085 51.4415 44.0343C51.0751 43.9168 50.8549 43.4492 50.6213 42.9536C50.4591 42.61 50.2763 42.2202 50.0838 42.0936C49.9367 41.9969 49.778 41.9462 49.6237 41.9462L49.6229 41.9453Z" fill="#6750A4"/>
<path d="M41.0057 46.8794C41.0057 46.8794 41.2953 34.0366 47.0854 39.1176C47.0854 39.1176 44.7695 35.0251 41.0057 37.0006C37.2419 38.976 37.0976 46.5971 37.0976 46.5971L41.0057 46.8794Z" fill="white"/>
<path d="M40.7613 47.353C40.7559 47.353 40.7515 47.353 40.7462 47.353L36.809 47.0561C36.7027 47.0479 36.6202 46.9568 36.622 46.8476C36.6282 46.5154 36.8144 38.6877 40.6646 36.5776C44.5867 34.4296 47.0362 38.8412 47.0602 38.8854C47.1081 38.9729 47.0859 39.0831 47.0088 39.1453C46.9316 39.2076 46.8217 39.204 46.749 39.1372C45.5894 38.0749 44.5885 37.7166 43.7746 38.0749C41.1629 39.2239 40.9634 47.0732 40.9616 47.1526C40.9607 47.2086 40.9368 47.2618 40.896 47.2997C40.8588 47.334 40.81 47.353 40.7604 47.353H40.7613ZM37.0333 46.6607L40.5671 46.927C40.6168 45.5994 40.9962 38.8502 43.6168 37.6977C44.3048 37.3944 45.0814 37.4982 45.9325 38.0036C44.9883 36.9359 43.2268 35.639 40.857 36.9377C37.536 38.7581 37.0874 45.4333 37.0333 46.6607Z" fill="#6750A4"/>
<path d="M35.1323 44.5676C38.0177 43.3631 41.3665 44.266 43.2628 46.7475C44.2961 48.1006 45.363 49.9772 46.2669 52.5719C49.1079 60.7239 50.3512 71.5333 49.8186 74.3686C49.2861 77.2038 46.8562 78.579 43.6758 79.7092C42.0444 80.2884 34.9259 79.955 30.1433 79.6499C27.5903 79.4872 25.576 77.4249 25.4794 74.8735C25.2605 69.0925 24.9903 59.3266 25.4918 55.7609C26.3939 49.3422 31.4707 46.0957 35.1323 44.5667V44.5676Z" fill="white"/>
<path d="M39.5324 80.0264C36.8215 80.0264 33.3067 79.8498 30.2488 79.6539C27.626 79.486 25.5735 77.3739 25.4741 74.7398C25.2657 69.1978 24.9893 59.3688 25.488 55.8041C26.3713 49.4872 31.1992 46.2129 35.0942 44.5784C38.017 43.3523 41.4027 44.2644 43.3288 46.7971C44.5112 48.3529 45.5156 50.3093 46.3143 52.612C49.0226 60.4208 50.3706 71.3028 49.8161 74.2693C49.2476 77.3092 46.5132 78.6761 43.6436 79.7011C42.9827 79.9372 41.4603 80.0264 39.5324 80.0264ZM35.1709 44.7621L35.2477 44.9457C31.4477 46.54 26.7384 49.7277 25.8813 55.8592C25.3869 59.3932 25.6624 69.196 25.8708 74.7249C25.9624 77.1544 27.8553 79.1029 30.2741 79.2577C37.6185 79.7273 42.3191 79.7527 43.5111 79.3268C46.2699 78.3421 48.8962 77.039 49.4272 74.1967C49.9137 71.5949 48.8029 60.998 45.9403 52.7432C45.1555 50.4798 44.1711 48.5611 43.0132 47.0385C41.1969 44.6501 38.0039 43.7896 35.2468 44.9457L35.1701 44.7621H35.1709Z" fill="#6750A4"/>
<path d="M41.2375 67.3089C41.2375 67.3089 43.7561 79.3052 43.7561 80.6894C43.7561 82.0737 42.1813 82.0737 40.135 82.2278C38.0888 82.3819 27.0679 82.9966 24.076 80.2289C21.0851 77.4603 20.9273 67.9253 22.0298 66.541C23.1322 65.1567 25.1785 63.9265 25.1785 63.9265C25.1785 63.9265 32.3982 65.6794 39.0326 64.8494C39.0326 64.8494 40.4434 64.4974 41.2366 67.3097L41.2375 67.3089Z" fill="white"/>
<path d="M35.2799 82.3941C31.3116 82.3941 26.0492 82.0161 24.0906 80.1625C20.9982 77.2375 20.9577 67.5695 22.0598 66.1545C23.1522 64.7526 25.1223 63.5336 25.2059 63.4826C25.2517 63.4545 25.3072 63.4457 25.3591 63.4589C25.4295 63.4765 32.4841 65.1974 38.8829 64.3817C39.0563 64.3457 40.4867 64.1392 41.2746 66.9956C41.2755 67 41.2772 67.0044 41.2781 67.0088C41.3793 67.501 43.7561 79.0867 43.7561 80.4807C43.7561 81.9528 42.2992 82.0574 40.455 82.191L40.0149 82.2236C39.5307 82.2605 37.632 82.3941 35.2799 82.3941ZM25.3459 63.8667C24.9859 64.097 23.3116 65.1991 22.3758 66.4006C21.3424 67.7277 21.4779 77.1417 24.3653 79.8733C26.7984 82.1743 35.3274 82.1831 39.9841 81.8263L40.426 81.7938C42.3512 81.6549 43.3556 81.5327 43.3556 80.4816C43.3556 79.1412 40.9568 67.4351 40.8873 67.0967C40.1681 64.4986 38.9788 64.7702 38.9665 64.7737C38.9586 64.7755 38.9506 64.7772 38.9427 64.7781C32.8432 65.5577 26.1672 64.0609 25.3459 63.8676V63.8667Z" fill="#6750A4"/>
<path d="M45.934 73.3971C45.8346 73.3971 45.7484 73.3226 45.7361 73.2197C45.1092 68.0597 43.9257 62.7116 42.4898 58.5476C41.6984 56.2523 40.7057 54.3065 39.538 52.7624C37.7064 50.3394 34.4865 49.4666 31.7062 50.64C30.3107 51.2289 29.0305 51.9367 27.9006 52.7429C27.8109 52.8076 27.686 52.7854 27.6219 52.695C27.5585 52.6036 27.5797 52.4786 27.6693 52.4138C28.823 51.5899 30.1296 50.8679 31.5523 50.2684C34.4997 49.025 37.914 49.95 39.8563 52.5185C41.0486 54.0963 42.0616 56.0803 42.867 58.4155C44.3117 62.6052 45.5022 67.9825 46.1327 73.17C46.1459 73.2809 46.0685 73.3811 45.9586 73.3944C45.9507 73.3953 45.9419 73.3962 45.934 73.3962V73.3971Z" fill="#6750A4"/>
<path d="M34.0779 70.5559C30.1106 70.5559 24.8512 70.1391 22.8917 68.0947C22.8116 68.0113 22.8081 67.8717 22.8838 67.7835C22.9595 67.6953 23.0863 67.6914 23.1664 67.7748C26.2147 70.9543 38.2723 69.9723 38.7846 69.9287C38.8928 69.919 38.9906 70.0101 38.9994 70.1313C39.0082 70.2525 38.9254 70.3591 38.8154 70.3678C38.3312 70.4086 36.4317 70.5559 34.077 70.5559H34.0779Z" fill="#6750A4"/>
<path d="M89.0072 83.8355C89.0072 83.8355 87.5042 77.8124 88.1482 76.08C88.7923 74.3477 89.4857 78.1847 89.4857 78.1847C89.4857 78.1847 90.6862 71.3516 91.2289 71.5055C91.7715 71.6594 92.3063 72.6162 92.3063 72.6162C92.3063 72.6162 92.9382 76.2808 92.6833 77.953C92.4285 79.6261 91.547 84.2882 91.547 84.2882L89.0081 83.8363L89.0072 83.8355Z" fill="white"/>
<path d="M91.4564 84.2882C91.446 84.2882 91.4356 84.2874 91.4252 84.2856L89.0787 83.8312C89.0082 83.817 88.9513 83.7592 88.9336 83.6818C88.8768 83.432 87.5373 77.5429 88.1461 75.7627C88.1982 75.6116 88.3528 75.1518 88.6757 75.1821C89.053 75.2203 89.3422 76.0748 89.5377 76.924C89.8846 74.8993 90.5439 71.3977 91.003 71.0767C91.0679 71.0313 91.1424 71.018 91.2113 71.0393C91.7689 71.2119 92.2623 72.1446 92.316 72.2504C92.3264 72.2709 92.3336 72.2931 92.3369 72.3153C92.3609 72.4674 92.9233 76.0517 92.6853 77.7474C92.4522 79.4137 91.6423 84.0775 91.6343 84.1246C91.6174 84.2216 91.5413 84.2882 91.4556 84.2882H91.4564ZM89.2581 83.4551L91.3114 83.8525C91.4676 82.9482 92.1213 79.1487 92.3264 77.6851C92.5427 76.1415 92.0428 72.7999 91.9844 72.4203C91.8498 72.1677 91.4941 71.6004 91.1704 71.4502C90.8596 71.8841 90.2042 75.0576 89.7308 77.9857C89.7156 78.0817 89.6402 78.152 89.5521 78.152C89.464 78.152 89.3887 78.0826 89.3727 77.9866C89.1724 76.7799 88.8311 75.6605 88.6404 75.584C88.642 75.5911 88.5755 75.6436 88.4858 75.905C87.9643 77.4317 89.0642 82.5792 89.2573 83.4551H89.2581Z" fill="#6750A4"/>
<path d="M89.528 68.3412C89.8005 68.0451 89.9275 67.6397 89.8808 67.2334C89.7441 66.0418 89.1691 63.604 86.7723 62.641C83.394 61.2836 81.5396 62.2912 79.7856 64.7245C78.5537 66.4336 77.9973 69.5902 78.9761 70.9385C80.3888 72.8844 82.5792 72.3952 82.5792 72.3952L89.0827 68.8232L89.5271 68.3394L89.528 68.3412Z" fill="#6750A4"/>
<path d="M89.4102 67.6996C89.4102 67.6996 89.2024 69.0329 88.5764 69.7709C88.1093 70.3214 88.1826 71.4005 88.3302 71.9043C88.3712 72.0452 88.2734 72.1887 88.132 72.1942L87.6439 72.2015C87.4615 72.2089 87.2956 72.314 87.2056 72.4804C86.8939 73.0584 86.137 74.3789 85.7275 74.5929C85.0561 74.9431 83.591 73.4498 83.2697 73.1425C83.2365 73.1105 83.1719 78.1456 83.1719 78.1456C82.8087 78.9073 82.3853 79.3408 81.7645 79.5191C80.3798 79.9169 78.1796 76.6897 78.5087 76.1722C79.3294 74.8846 79.346 70.9039 79.346 70.9039C79.346 70.9039 80.1371 71.3246 81.3445 70.8948C82.3896 70.5226 83.2706 69.7462 83.2427 69.3356C83.178 68.3974 83.2409 67.557 84.0712 67.2945C84.8649 67.043 85.2097 67.7389 85.3189 68.1843C85.4682 68.7979 87.1279 69.2999 88.3407 68.422C89.5534 67.5441 89.4093 67.6996 89.4093 67.6996H89.4102Z" fill="white"/>
<path d="M81.737 79.5503C80.8364 79.5503 79.8012 78.566 79.1407 77.6454C78.8733 77.2721 78.2788 76.3621 78.5409 75.9677C79.3254 74.7861 79.3509 71.0213 79.3509 70.9842C79.3509 70.9143 79.3878 70.8497 79.4468 70.8135C79.5057 70.7772 79.5796 70.7746 79.6411 70.8055C79.6473 70.809 80.387 71.1663 81.4995 70.7852C82.5541 70.4252 83.2929 69.7151 83.2761 69.4825C83.2075 68.5247 83.2779 67.5969 84.2524 67.3016C84.5778 67.2025 84.8725 67.2255 85.1258 67.3697C85.5444 67.6076 85.7089 68.1037 85.7608 68.3053C85.7872 68.4079 85.9367 68.5724 86.2718 68.6989C86.861 68.92 87.7775 68.92 88.4969 68.4203C89.302 67.8608 89.7514 67.6365 89.8452 67.7473C89.8892 67.7995 89.8998 67.872 89.8822 67.9366C89.8531 68.1037 89.6253 69.3127 88.9974 70.0237C88.6034 70.4703 88.6412 71.4034 88.7916 71.8942C88.8294 72.0189 88.8083 72.1515 88.7335 72.2586C88.6579 72.3656 88.54 72.4301 88.409 72.4354L87.9121 72.4425C87.8012 72.4469 87.6983 72.5097 87.642 72.6105C87.3281 73.1695 86.5471 74.4943 86.0677 74.7348C85.4565 75.04 84.5031 74.3307 83.6807 73.5887C83.6561 74.458 83.6227 76.5319 83.6033 77.9938C83.6033 78.0239 83.5954 78.0539 83.5822 78.0805C83.1829 78.887 82.7062 79.3283 82.0387 79.5132C81.9402 79.5406 81.839 79.553 81.737 79.553V79.5503ZM79.7458 71.268C79.7238 72.1931 79.5989 75.0974 78.8724 76.1914C78.817 76.348 79.204 77.2014 79.985 78.0504C80.7238 78.8543 81.4512 79.2558 81.9331 79.1223C82.4784 78.9719 82.861 78.6173 83.2049 77.939C83.2084 77.7064 83.2225 76.6398 83.241 75.5706C83.2697 73.8737 83.3304 73.005 83.423 72.9643C83.4951 72.9325 83.5796 72.9466 83.6376 73.0006L83.7159 73.0731C85.1645 74.4253 85.6992 74.4678 85.8901 74.3722C86.1425 74.2458 86.7062 73.4578 87.2946 72.4107C87.4195 72.1878 87.6473 72.0481 87.9024 72.0383L88.3984 72.0313L88.409 72.0109C88.2401 71.4573 88.1689 70.3553 88.6983 69.7557C89.0607 69.3454 89.2779 68.7157 89.3905 68.2947C89.2392 68.3964 89.0246 68.5415 88.7247 68.7502C87.8285 69.3728 86.7687 69.3144 86.1319 69.0748C85.7186 68.9191 85.4424 68.675 85.3738 68.4044C85.3351 68.2523 85.2146 67.8808 84.9296 67.719C84.7722 67.6297 84.5893 67.6191 84.3685 67.6854C83.7001 67.8888 83.6077 68.5123 83.6754 69.4524C83.7177 70.0352 82.6306 70.8223 81.6288 71.1646C80.7687 71.4582 80.102 71.3653 79.7467 71.2663L79.7458 71.268Z" fill="#6750A4"/>
<path d="M84.4326 70.555C84.4167 70.555 84.4008 70.5534 84.3849 70.5509C83.5681 70.4049 83.1527 69.7787 83.2442 68.8348C83.2541 68.7311 83.3624 68.6548 83.4876 68.6622C83.6118 68.6705 83.7042 68.7618 83.6943 68.8655C83.6526 69.2968 83.6993 70.0424 84.4803 70.1826C84.6025 70.2042 84.6801 70.3045 84.6532 70.4066C84.6304 70.4953 84.537 70.5559 84.4326 70.5559V70.555Z" fill="#6750A4"/>
<path d="M92.4292 84.2873C92.4292 84.2873 89.2477 78.7666 89.4215 76.8778C89.5953 74.989 91.3544 78.5801 91.3544 78.5801C91.3544 78.5801 90.6846 71.5029 91.2752 71.5029C91.8659 71.5029 92.6712 72.297 92.6712 72.297C92.6712 72.297 94.3202 75.7351 94.5241 77.4564C94.7279 79.1777 95.122 84.0238 95.122 84.0238L92.4292 84.2882V84.2873Z" fill="white"/>
<path d="M92.4187 84.2882C92.3499 84.2882 92.2863 84.2505 92.2515 84.1882C92.1292 83.968 89.256 78.7628 89.4215 76.8915C89.436 76.7318 89.4784 76.2475 89.8137 76.1843C90.2092 76.1089 90.7228 76.8371 91.1395 77.5872C90.9757 75.5614 90.7533 72.039 91.1395 71.5994C91.1947 71.5371 91.2669 71.5029 91.3424 71.5029C91.9552 71.5029 92.698 72.2451 92.7803 72.3294C92.7964 72.3452 92.8091 72.3645 92.8185 72.3846C92.8821 72.5215 94.3727 75.765 94.5637 77.4459C94.7521 79.0988 95.1179 83.7697 95.1213 83.8162C95.1298 83.925 95.0526 84.0198 94.9482 84.0312L92.4365 84.2873C92.4306 84.2873 92.4238 84.2882 92.4178 84.2882H92.4187ZM89.8816 76.5765C89.8841 76.5827 89.8307 76.652 89.806 76.9274C89.6643 78.5321 92.1038 83.103 92.5248 83.8776L94.7224 83.6539C94.6502 82.7485 94.3464 78.9453 94.1808 77.4933C94.0068 75.9633 92.6419 72.933 92.4849 72.5882C92.2829 72.3873 91.7744 71.9521 91.4061 71.9047C91.1998 72.4083 91.3424 75.6167 91.6081 78.5391C91.6166 78.6347 91.558 78.7233 91.468 78.7497C91.378 78.776 91.283 78.7321 91.2422 78.6453C90.7287 77.5565 90.0946 76.5932 89.8807 76.5765H89.8816Z" fill="#6750A4"/>
<path d="M92.5394 77.1853C92.436 77.1853 92.3479 77.1108 92.3362 77.0095L91.794 72.1943C91.7814 72.0861 91.8632 71.9891 91.9747 71.9778C92.0862 71.9648 92.1878 72.0445 92.2004 72.1527L92.7426 76.9679C92.7552 77.0762 92.6734 77.1731 92.5619 77.1844C92.5547 77.1844 92.5466 77.1853 92.5394 77.1853Z" fill="#6750A4"/>
<path d="M77.0488 76.5678C77.0488 76.5678 84.6934 75.8264 85.9261 76.5678C87.1588 77.3092 92.1848 85.5289 92.1848 85.5289L91.5979 83.4469C91.5979 83.4469 95.7924 82.7718 95.8171 82.8416C95.8417 82.9114 100.148 91.4818 97.6974 94.2737C95.2469 97.0657 87.0269 92.736 84.3132 90.2833C81.5987 87.8307 77.0497 76.5669 77.0497 76.5669L77.0488 76.5678Z" fill="#6750A4"/>
<path d="M94.4333 89.4971C94.3601 89.4971 94.2888 89.4592 94.2494 89.3911L92.2974 86.0331C92.2383 85.9309 92.272 85.7984 92.3734 85.7388C92.4748 85.6783 92.6061 85.7123 92.6653 85.8155L94.6173 89.1735C94.6764 89.2757 94.6426 89.4082 94.5412 89.4678C94.5074 89.4876 94.4699 89.4971 94.4333 89.4971Z" fill="#6750A4"/>
<path d="M61.3537 128.845C61.3537 128.845 71.811 121.616 72.0919 121.698C72.3719 121.78 80.4447 121.698 82.7903 123.459C85.1359 125.221 77.3689 130.113 77.3689 130.113L61.5858 134.009L61.3545 128.845H61.3537Z" fill="white"/>
<path d="M61.7784 134.481C61.7367 134.481 61.6949 134.467 61.6601 134.442C61.6122 134.406 61.5835 134.35 61.5809 134.291L61.3538 129.096C61.3512 129.029 61.3825 128.963 61.4382 128.924C61.4643 128.906 64.0355 127.085 66.6085 125.298C71.891 121.627 72.0111 121.663 72.1521 121.706C72.1982 121.714 72.5036 121.725 72.8569 121.736C75.0191 121.809 80.7637 122.004 82.7206 123.51C83.0765 123.784 83.2479 124.14 83.2305 124.569C83.1391 126.792 77.6182 130.379 77.3833 130.531C77.365 130.543 77.3458 130.552 77.325 130.557L61.8272 134.476C61.8115 134.481 61.795 134.482 61.7793 134.482L61.7784 134.481ZM61.7541 129.188L61.9655 134.028L77.197 130.176C78.7685 129.158 82.7667 126.216 82.8346 124.552C82.8468 124.258 82.731 124.021 82.4805 123.827C80.6236 122.399 74.7677 122.2 72.8429 122.135C72.3757 122.119 72.1921 122.112 72.1016 122.101C71.4916 122.357 65.6479 126.431 61.7541 129.188Z" fill="#6750A4"/>
<path d="M62.1515 135.024C62.1033 134.55 62.7805 128.362 62.7805 128.362C62.7805 128.362 57.9286 125.792 56.5439 126.584C55.1592 127.376 48.0366 139.423 48.0366 139.423C48.0366 139.423 48.3078 140.682 51.1504 139.919C53.993 139.156 62.1506 135.024 62.1506 135.024H62.1515Z" fill="white"/>
<path d="M49.7625 140.637C49.2776 140.637 48.8788 140.544 48.5704 140.359C48.133 140.096 48.0488 139.744 48.0407 139.704C48.0308 139.657 48.0389 139.607 48.0631 139.564C48.3562 139.051 55.2616 126.982 56.6823 126.141C58.1316 125.285 62.6411 127.708 63.1511 127.987C63.2228 128.026 63.2631 128.104 63.2551 128.185C62.9826 130.763 62.5891 134.724 62.6232 135.07C62.6312 135.152 62.5891 135.23 62.5156 135.268C62.1804 135.444 54.2675 139.583 51.4244 140.374C50.7906 140.55 50.2358 140.638 49.7634 140.638L49.7625 140.637ZM48.4629 139.683C48.5005 139.762 48.5919 139.904 48.7981 140.024C49.1495 140.228 49.871 140.386 51.3132 139.985C53.9377 139.255 61.2321 135.479 62.2144 134.968C62.2359 133.999 62.7271 129.292 62.8347 128.275C61.4194 127.514 57.9192 125.878 56.8911 126.487C55.7967 127.136 50.4814 136.154 48.4629 139.683Z" fill="#6750A4"/>
<path d="M50.1388 139.691C50.1141 139.691 50.0895 139.687 50.0648 139.677C49.9652 139.636 49.9141 139.527 49.9511 139.425C50.0736 139.094 56.3894 129.017 57.6542 127C57.7132 126.906 57.8366 126.878 57.9309 126.937C58.0244 126.996 58.0526 127.12 57.9935 127.214C55.917 130.524 50.4922 139.197 50.3248 139.569C50.2913 139.644 50.2164 139.69 50.1379 139.69L50.1388 139.691Z" fill="#6750A4"/>
<path d="M84.1452 121.224L81.4234 124.831C81.4234 124.831 72.509 126.571 62.7846 132.037L60.8781 139.218L88.5056 133.934C90.9647 133.463 92.7439 131.306 92.7439 128.792V122.728L84.1443 121.224L84.1452 121.224Z" fill="white"/>
<path d="M60.6033 139.691C60.5483 139.691 60.4943 139.668 60.4562 139.627C60.4092 139.576 60.3915 139.504 60.4092 139.436L62.32 132.228C62.3342 132.176 62.3687 132.13 62.4166 132.103C71.6063 126.93 80.1863 125.049 81.0815 124.862L83.7633 121.304C83.8085 121.243 83.8838 121.214 83.9583 121.226L92.5773 122.736C92.6739 122.753 92.7439 122.837 92.7439 122.936V129.023C92.7439 131.639 90.888 133.893 88.332 134.383L60.6423 139.688C60.6299 139.69 60.6175 139.691 60.6042 139.691H60.6033ZM62.686 132.415L60.8798 139.23L88.2549 133.986C90.6213 133.533 92.3398 131.446 92.3398 129.024V123.108L84.0088 121.648L81.3553 125.17C81.3252 125.21 81.2817 125.236 81.233 125.246C81.1444 125.264 72.2613 127.043 62.6869 132.417L62.686 132.415Z" fill="#6750A4"/>
<path d="M89.1423 99.2101C88.4732 96.3661 89.4318 91.7958 89.4318 91.7958L81.2534 75.9053C74.6207 75.1994 70.9794 77.38 70.9794 77.38C64.5594 92.8542 68.8556 116.644 67.9985 118.718C67.3982 120.171 67.1405 121.29 67.069 122.139C66.9604 123.419 67.9685 124.515 69.2484 124.511C71.4711 124.505 75.7938 124.587 81.2384 125.16C89.28 126.007 90.8874 133.119 90.8874 133.119C90.8874 133.119 94.6408 135.362 95.0962 129.431C95.5517 123.5 89.8114 102.054 89.1423 99.2109V99.2101Z" fill="#6750A4"/>
<path d="M84.9346 120.75C84.9276 120.75 84.9196 120.75 84.9117 120.749C78.4845 120.039 74.8779 116.145 72.9834 113.004C70.9374 109.609 70.3981 106.333 70.3928 106.301C70.3752 106.192 70.4501 106.091 70.5593 106.074C70.6695 106.054 70.7708 106.13 70.7885 106.239C70.7937 106.271 71.3233 109.482 73.3341 112.812C75.181 115.871 78.6969 119.663 84.9558 120.354C85.0659 120.367 85.1452 120.464 85.1329 120.574C85.1214 120.675 85.0351 120.75 84.9337 120.75H84.9346Z" fill="white"/>
<path d="M87.9534 62.2894C87.9534 62.2894 82.3179 59.4115 79.731 60.3131C77.1432 61.2147 72.5587 73.4999 70.7468 75.3989C68.935 77.2979 65.9909 82.3412 70.0646 84.7596C74.1383 87.1779 81.2508 79.7189 82.2902 77.1134C83.3305 74.5078 84.0011 70.9638 84.0011 70.9638L89.8902 64.6762C89.8902 64.6762 89.4973 63.5434 87.9525 62.2894H87.9534Z" fill="white"/>
<path d="M72.0047 85.7088C71.3096 85.7088 70.6811 85.5364 70.1244 85.1927C68.9261 84.4521 68.2301 83.4225 68.0557 82.1318C67.6954 79.4595 69.6616 76.5055 70.7512 75.317C71.4262 74.581 72.5666 72.1367 73.7755 69.5489C75.768 65.2807 78.0261 60.4434 79.6495 59.8545C82.2416 58.9147 87.6511 61.7629 87.8799 61.885C87.8922 61.8913 87.9045 61.8993 87.915 61.9083C89.4569 63.2108 89.8628 64.3884 89.8794 64.4378C89.9031 64.5087 89.8873 64.5868 89.8374 64.6425L84.0948 71.0219C84.0045 71.5003 83.3611 74.817 82.4152 77.2828C81.6219 79.3509 77.5387 84.0796 73.807 85.3749C73.1654 85.5975 72.564 85.7088 72.0056 85.7088H72.0047ZM80.8952 60.0718C80.4841 60.0718 80.1071 60.1229 79.7828 60.2405C78.3145 60.7728 75.9968 65.7376 74.1349 69.7257C72.8603 72.4563 71.7593 74.8143 71.0422 75.5971C69.8281 76.9211 68.1363 79.7396 68.451 82.077C68.6079 83.2394 69.2399 84.1703 70.3304 84.8444C71.2298 85.4 72.3554 85.4485 73.6782 84.9898C77.245 83.7511 81.294 79.0897 82.0435 77.1347C83.0455 74.5226 83.7064 70.9267 83.7135 70.8899C83.7205 70.8522 83.7371 70.8172 83.7625 70.7894L89.4578 64.4629C89.3228 64.1551 88.8503 63.2341 87.6783 62.2395C87.375 62.0816 83.475 60.0727 80.8952 60.0727V60.0718Z" fill="#6750A4"/>
<path d="M73.4516 80.9735C73.3379 80.9762 73.2439 80.8862 73.2439 80.7744C73.2439 80.6652 73.3352 80.5761 73.4471 80.5761H73.4516C80.0285 80.5761 81.859 69.8829 81.8769 69.7755C81.8948 69.6671 81.9986 69.5947 82.1096 69.6113C82.2206 69.6287 82.2957 69.73 82.2778 69.8383C82.2036 70.2934 80.3731 80.9735 73.4507 80.9735H73.4516Z" fill="#6750A4"/>
<path d="M62.1114 139.05C62.0605 138.512 62.7805 131.469 62.7805 131.469C62.7805 131.469 57.6154 128.545 56.1413 129.446C54.6672 130.346 47.0854 144.056 47.0854 144.056C47.0854 144.056 47.3747 145.489 50.4001 144.62C53.4264 143.751 62.1105 139.049 62.1105 139.049L62.1114 139.05Z" fill="white"/>
<path d="M48.9063 144.9C48.3926 144.9 47.9714 144.801 47.6454 144.605C47.1854 144.328 47.0973 143.958 47.0894 143.917C47.0797 143.87 47.0876 143.821 47.1114 143.779C47.4234 143.232 54.774 130.361 56.2825 129.467C57.8175 128.557 62.6118 131.138 63.1529 131.436C63.2234 131.474 63.263 131.551 63.2551 131.631C62.9652 134.381 62.5458 138.609 62.5828 138.979C62.5907 139.059 62.5493 139.136 62.477 139.174C62.1202 139.361 53.6972 143.776 50.6704 144.619C49.9972 144.807 49.4077 144.9 48.9063 144.9ZM47.5044 143.898C47.5432 143.983 47.641 144.142 47.8701 144.276C48.2472 144.495 49.02 144.667 50.5629 144.236C53.3668 143.455 61.1703 139.407 62.1827 138.879C62.2021 137.87 62.7326 132.787 62.8445 131.72C61.3412 130.911 57.5928 129.153 56.4896 129.808C55.3203 130.502 49.6518 140.138 47.5053 143.898H47.5044Z" fill="#6750A4"/>
<path d="M49.1834 143.953C49.1592 143.953 49.135 143.949 49.1117 143.939C49.0131 143.898 48.9629 143.789 49.0001 143.688C49.1298 143.333 55.8414 132.485 57.1855 130.314C57.2434 130.221 57.3645 130.192 57.4571 130.251C57.5487 130.31 57.5764 130.434 57.5185 130.527C55.3095 134.095 49.5381 143.441 49.3668 143.832C49.3339 143.906 49.2604 143.953 49.1834 143.953Z" fill="#6750A4"/>
<path d="M97.3046 119.804C97.3046 119.804 98.1477 118.216 97.9438 117.198C97.7353 116.159 96.1542 114.959 94.4423 115.857C91.9129 117.184 94.092 120.276 94.092 120.276H95.472C95.472 120.276 94.6517 118.677 94.8867 117.723C95.0559 117.038 96.3764 116.873 96.3618 118.066C96.3499 118.983 95.7527 120.276 95.7527 120.276L97.3055 119.803L97.3046 119.804Z" fill="white"/>
<path d="M95.9918 120.75C95.94 120.75 95.8891 120.731 95.8502 120.696C95.8123 120.731 95.7614 120.75 95.7087 120.75H94.3128C94.2444 120.75 94.1796 120.717 94.1398 120.661C94.0899 120.59 92.9243 118.912 93.2906 117.418C93.4516 116.762 93.8817 116.246 94.5681 115.885C95.3775 115.46 96.2554 115.428 97.0398 115.795C97.7484 116.127 98.2887 116.751 98.4154 117.385C98.6337 118.475 97.7845 120.092 97.7484 120.16C97.7225 120.21 97.6781 120.246 97.6245 120.263L96.0537 120.741C96.0334 120.747 96.0121 120.75 95.9918 120.75ZM95.8826 117.624C95.6458 117.624 95.3803 117.766 95.3211 118.007C95.1361 118.756 95.6791 119.991 95.8484 120.348C95.9881 120.023 96.3895 119.026 96.3988 118.302C96.4034 117.91 96.2415 117.665 95.9529 117.629C95.9298 117.626 95.9067 117.624 95.8835 117.624H95.8826ZM94.4266 120.335H95.3803C95.1453 119.803 94.7217 118.684 94.9132 117.909C95.0223 117.467 95.5135 117.155 96.0056 117.217C96.4053 117.267 96.828 117.58 96.8197 118.308C96.8114 118.948 96.544 119.74 96.3581 120.214L97.4154 119.892C97.5754 119.569 98.1693 118.292 98.0037 117.466C97.9029 116.964 97.4441 116.444 96.8604 116.17C96.1999 115.86 95.4562 115.89 94.767 116.251C94.1907 116.554 93.8318 116.979 93.7004 117.516C93.422 118.65 94.2018 119.983 94.4275 120.335H94.4266Z" fill="#6750A4"/>
<path d="M91.8754 142.059L98.5809 138.025C99.6279 137.809 100.379 136.891 100.379 135.827L103.683 126.672C103.298 123.628 103.951 121.349 99.3401 119.627C97.8002 119.052 93.9415 119.431 92.346 119.76L91.8826 119.855C88.783 120.495 86.561 123.211 86.561 126.36V137.747C86.561 138.458 86.889 139.08 87.3928 139.487C87.8965 139.895 90.3848 141.687 91.8763 142.058L91.8754 142.059Z" fill="white"/>
<path d="M91.9512 142.059C91.9355 142.059 91.9188 142.057 91.9031 142.053C90.3658 141.668 87.8462 139.813 87.4469 139.488C86.884 139.03 86.561 138.35 86.561 137.623V126.434C86.561 123.261 88.8136 120.492 91.9171 119.848L92.3697 119.754C94.0497 119.405 97.8064 119.066 99.3122 119.631C103.233 121.104 103.376 122.992 103.557 125.382C103.59 125.811 103.624 126.254 103.682 126.715C103.685 126.747 103.682 126.777 103.671 126.807L100.456 135.771C100.439 136.879 99.6553 137.843 98.575 138.084L92.0545 142.03C92.023 142.049 91.9871 142.059 91.9512 142.059ZM96.8188 119.721C95.2622 119.721 93.4693 119.932 92.4502 120.143L91.9976 120.237C89.0779 120.843 86.9584 123.449 86.9584 126.433V137.622C86.9584 138.228 87.2281 138.795 87.6973 139.178C88.2384 139.619 90.5408 141.259 91.9197 141.644L98.3973 137.724C98.4166 137.713 98.4376 137.704 98.4594 137.7C99.3848 137.508 100.057 136.682 100.057 135.735C100.057 135.713 100.062 135.69 100.069 135.668L103.279 126.717C103.224 126.263 103.19 125.83 103.159 125.411C102.982 123.075 102.853 121.387 99.1703 120.004C98.6275 119.799 97.7661 119.721 96.8171 119.721H96.8188Z" fill="#6750A4"/>
<path d="M92.5992 142.011L101.888 140.091C102.933 139.875 103.683 138.956 103.683 137.892V128.325C103.683 119.838 100.92 120.454 96.6528 121.071L95.4138 121.264C92.3201 121.904 89.8902 121.442 89.8902 128.421V139.812C89.8902 141.236 91.2018 142.3 92.5992 142.011Z" fill="white"/>
<path d="M92.3534 142.059C91.7915 142.059 91.245 141.872 90.8 141.519C90.222 141.062 89.8902 140.382 89.8902 139.656V128.475C89.8902 122.222 91.9668 121.875 94.5954 121.436C94.9217 121.382 95.2588 121.325 95.6031 121.256L97.1736 121.02C99.3131 120.715 101.16 120.453 102.409 121.503C103.619 122.522 104.159 124.643 104.159 128.381V137.77C104.159 138.903 103.331 139.892 102.193 140.122L92.8586 142.007C92.6905 142.041 92.5215 142.058 92.3543 142.058L92.3534 142.059ZM99.9101 121.144C99.1235 121.144 98.2272 121.272 97.232 121.414L96.9183 121.459L95.6759 121.648C95.3352 121.717 94.9945 121.774 94.6646 121.829C92.1304 122.253 90.2984 122.558 90.2984 128.476V139.656C90.2984 140.262 90.5752 140.829 91.0571 141.211C91.5398 141.593 92.1655 141.743 92.7741 141.619L102.108 139.734C103.058 139.543 103.749 138.717 103.749 137.771V128.382C103.749 124.819 103.238 122.729 102.141 121.805C101.552 121.31 100.803 121.145 99.9101 121.145V121.144Z" fill="#6750A4"/>
<path d="M103.798 131.168L105.585 132.394L103.534 138.522C103.534 139.368 102.924 140.097 102.072 140.268L96.3087 143C96.199 143.022 95.6148 143 94.9873 142.667C94.4359 142.375 93.8252 141.88 93.6871 141.776C92.9569 141.23 92.3064 140.307 92.3064 139.459L92.2683 134.423C92.2683 133.734 92.7737 133.143 93.4702 133.019L103.798 131.168V131.168Z" fill="white"/>
<path d="M95.9643 143.479C95.7053 143.479 95.1839 143.405 94.6322 143.101C94.1401 142.83 93.608 142.401 93.3802 142.218L93.2983 142.153C92.5677 141.584 91.831 140.563 91.831 139.567L91.7927 134.303C91.7927 133.483 92.3702 132.781 93.1666 132.633L103.55 130.697C103.604 130.687 103.659 130.7 103.703 130.732L105.5 132.013C105.572 132.065 105.603 132.158 105.575 132.244L103.523 138.62C103.507 139.574 102.839 140.402 101.918 140.608L96.1458 143.453C96.1307 143.46 96.1146 143.466 96.0986 143.469C96.0693 143.476 96.0239 143.479 95.9634 143.479H95.9643ZM103.54 131.115L93.2405 133.034C92.6363 133.147 92.1976 133.68 92.1976 134.301L92.2358 139.565C92.2358 140.418 92.9148 141.335 93.5448 141.827L93.632 141.896C93.8509 142.072 94.3634 142.486 94.8253 142.74C95.3805 143.046 95.8851 143.073 95.999 143.068L101.763 140.227C101.778 140.22 101.794 140.215 101.811 140.211C102.568 140.053 103.118 139.368 103.118 138.585C103.118 138.564 103.121 138.542 103.127 138.522L105.144 132.259L103.539 131.113L103.54 131.115Z" fill="#6750A4"/>
<path d="M106.061 133.029V139.514C106.061 140.406 105.415 141.176 104.513 141.356L96.5061 142.966C95.301 143.208 94.1707 142.316 94.1707 141.124V135.181C94.1707 134.665 94.5439 134.221 95.0648 134.116L104.925 132.134C105.511 132.016 106.061 132.449 106.061 133.029Z" fill="white"/>
<path d="M96.2419 143.479C95.7696 143.479 95.3096 143.317 94.9358 143.009C94.4496 142.61 94.1707 142.018 94.1707 141.385V135.401C94.1707 134.791 94.6012 134.257 95.1928 134.133L104.725 132.138C105.054 132.07 105.391 132.152 105.651 132.366C105.912 132.58 106.061 132.896 106.061 133.235V139.764C106.061 140.751 105.366 141.614 104.407 141.814L96.6662 143.435C96.5251 143.465 96.3831 143.479 96.2419 143.479V143.479ZM104.952 132.515C104.903 132.515 104.854 132.52 104.805 132.53L95.273 134.525C94.8634 134.61 94.5663 134.979 94.5663 135.401V141.385C94.5663 141.897 94.792 142.376 95.1858 142.699C95.5788 143.021 96.0894 143.148 96.5861 143.043L104.327 141.423C105.103 141.261 105.665 140.563 105.665 139.764V133.235C105.665 133.017 105.569 132.814 105.401 132.676C105.272 132.57 105.114 132.514 104.952 132.514V132.515Z" fill="#6750A4"/>
<path d="M126.714 31.7247C126.676 31.7247 126.639 31.7151 126.605 31.694C126.512 31.6352 126.484 31.5114 126.543 31.4184L146.592 0.0928361C146.651 -0.000196299 146.776 -0.0282815 146.87 0.0313996C146.964 0.0902031 146.991 0.213954 146.932 0.306986L126.884 31.6334C126.845 31.6931 126.78 31.7265 126.714 31.7265V31.7247Z" fill="#6750A4"/>
<path d="M149.088 16.1C149.024 16.1 148.961 16.0727 148.918 16.0211C148.839 15.9277 148.851 15.7876 148.946 15.7097L151.83 13.3106C151.924 13.2318 152.065 13.2444 152.143 13.3379C152.222 13.4313 152.21 13.5715 152.115 13.6493L149.231 16.0484C149.189 16.0834 149.139 16.1 149.088 16.1Z" fill="#6750A4"/>
<path d="M129.092 32.6736C129.034 32.6736 128.976 32.6487 128.937 32.6016C128.866 32.5162 128.877 32.3883 128.963 32.3172L146.631 17.568C146.717 17.496 146.845 17.5075 146.916 17.5929C146.988 17.6782 146.977 17.8053 146.891 17.8773L129.222 32.6265C129.184 32.6585 129.139 32.6736 129.092 32.6736Z" fill="#6750A4"/>
<path d="M105.306 51.6147C105.231 51.6147 105.16 51.5786 105.127 51.5173C105.083 51.4343 105.127 51.3376 105.226 51.3008L108.163 50.2084C108.262 50.1716 108.378 50.2084 108.422 50.2913C108.466 50.3743 108.422 50.471 108.323 50.5078L105.386 51.6002C105.36 51.6096 105.333 51.6147 105.306 51.6147Z" fill="#6750A4"/>
<path d="M94.8416 56.35C94.767 56.35 94.6959 56.3105 94.6633 56.2435C94.6196 56.1528 94.6633 56.0471 94.7619 56.0069L101.982 53.0509C102.081 53.0106 102.195 53.0509 102.239 53.1416C102.283 53.2323 102.239 53.338 102.141 53.3782L94.9205 56.3342C94.8948 56.3445 94.8682 56.35 94.8416 56.35Z" fill="#6750A4"/>
<path d="M98.6511 70.5559C98.6124 70.5559 98.5736 70.5445 98.5392 70.5216C98.4476 70.46 98.4238 70.335 98.4855 70.2435L100.463 67.3291C100.524 67.2376 100.65 67.2138 100.741 67.2754C100.833 67.337 100.857 67.462 100.795 67.5535L98.8177 70.4679C98.7789 70.5251 98.7155 70.5559 98.652 70.5559H98.6511Z" fill="#6750A4"/>
<path d="M102.453 64.8735C102.415 64.8735 102.377 64.8621 102.343 64.8393C102.253 64.7779 102.229 64.6534 102.29 64.5623L109.98 53.1229C110.041 53.0317 110.164 53.008 110.255 53.0694C110.345 53.1307 110.369 53.2552 110.308 53.3464L102.618 64.7858C102.58 64.8428 102.517 64.8735 102.454 64.8735H102.453Z" fill="#6750A4"/>
<path d="M143.916 72.9235C143.906 72.9235 143.895 72.9235 143.885 72.9191L142.847 72.6361C142.741 72.6069 142.669 72.4377 142.685 72.2568C142.702 72.0759 142.802 71.9504 142.908 71.981L143.946 72.2641C144.052 72.2933 144.124 72.4625 144.107 72.6434C144.092 72.8068 144.01 72.9235 143.916 72.9235Z" fill="#6750A4"/>
<path d="M140.111 71.9765C140.101 71.9765 140.09 71.9765 140.08 71.9743L139.042 71.8327C138.936 71.8181 138.864 71.7335 138.88 71.643C138.897 71.5525 138.997 71.4905 139.103 71.5051L140.141 71.6466C140.247 71.6612 140.319 71.7459 140.303 71.8364C140.287 71.9181 140.205 71.9765 140.111 71.9765Z" fill="#6750A4"/>
<path d="M141.422 71.0295C141.414 71.0295 141.405 71.0295 141.396 71.0269C141.305 71.0099 141.244 70.9103 141.258 70.8055L141.401 69.7719C141.416 69.6663 141.501 69.5931 141.592 69.6118C141.683 69.6288 141.744 69.7285 141.73 69.8332L141.587 70.8668C141.573 70.9622 141.503 71.0295 141.422 71.0295Z" fill="#6750A4"/>
<path d="M140.947 74.8177C140.938 74.8177 140.929 74.8177 140.92 74.8151C140.83 74.7981 140.768 74.6985 140.783 74.5938L140.926 73.5601C140.94 73.4545 141.025 73.3813 141.116 73.4C141.207 73.4171 141.269 73.5167 141.254 73.6214L141.111 74.6551C141.098 74.7504 141.027 74.8177 140.947 74.8177Z" fill="#6750A4"/>
<path d="M140.07 63.4529C139.982 63.4529 139.893 63.4457 139.804 63.432C139.364 63.3622 138.979 63.1261 138.719 62.7679C138.458 62.4098 138.354 61.9714 138.424 61.5337C138.494 61.0969 138.732 60.7123 139.091 60.4529C139.834 59.9165 140.878 60.0827 141.415 60.8223C141.676 61.1804 141.781 61.6189 141.71 62.0565C141.64 62.4933 141.402 62.8771 141.043 63.1373C140.756 63.3445 140.417 63.4529 140.07 63.4529ZM140.067 60.5027C139.802 60.5027 139.536 60.5822 139.306 60.7484C139.026 60.9508 138.84 61.2503 138.786 61.5916C138.731 61.9328 138.812 62.2741 139.015 62.5535C139.219 62.833 139.519 63.0169 139.861 63.0715C140.204 63.1261 140.546 63.0442 140.828 62.8418C141.108 62.6395 141.294 62.3399 141.348 61.9987C141.403 61.6574 141.322 61.3161 141.119 61.0367C140.866 60.6882 140.469 60.5027 140.067 60.5027Z" fill="#6750A4"/>
<path d="M133.885 55.4029C133.517 55.4029 133.153 55.2332 132.921 54.9143C132.735 54.6581 132.66 54.345 132.71 54.0327C132.761 53.7204 132.93 53.446 133.187 53.2606C133.444 53.0752 133.758 53.0003 134.072 53.0505C134.386 53.1 134.662 53.2689 134.848 53.5251C135.232 54.0533 135.113 54.7948 134.581 55.178C134.371 55.3296 134.127 55.4029 133.885 55.4029ZM133.226 54.6943C133.488 55.0552 133.998 55.136 134.361 54.8748C134.725 54.6128 134.807 54.106 134.543 53.7451C134.416 53.5704 134.228 53.4551 134.014 53.4205C133.8 53.3867 133.584 53.4378 133.409 53.5647C133.232 53.6916 133.117 53.8786 133.083 54.0928C133.048 54.3062 133.099 54.5205 133.227 54.6951L133.226 54.6943Z" fill="#6750A4"/>
<path d="M106.023 150.108C95.8413 150.108 87.3004 148.495 87.1996 148.476C87.0908 148.455 87.0191 148.352 87.0403 148.244C87.0616 148.137 87.1677 148.065 87.2766 148.087C87.396 148.11 99.3397 150.364 111.808 149.525C123.267 148.753 137.525 145.133 140.382 132.27C140.406 132.164 140.513 132.096 140.622 132.119C140.731 132.143 140.799 132.248 140.776 132.355C139.49 138.149 135.858 142.601 129.983 145.588C125.302 147.967 119.194 149.425 111.83 149.921C109.868 150.053 107.918 150.109 106.025 150.109L106.023 150.108Z" fill="#6750A4"/>
</svg>
