<svg width="18" height="18" viewBox="0 0 18 18" fill="none" xmlns="http://www.w3.org/2000/svg">
<path d="M0 9C0 4.02944 4.02944 0 9 0C13.9706 0 18 4.02944 18 9C18 13.9706 13.9706 18 9 18C4.02944 18 0 13.9706 0 9Z" fill="#45B035"/>
<path fill-rule="evenodd" clip-rule="evenodd" d="M11.5212 7.23601C11.4615 7.23271 11.4015 7.23211 11.3409 7.23211C9.1857 7.23211 7.4373 8.69671 7.4373 10.5042C7.4373 10.8 7.4856 11.0865 7.5735 11.3592C7.4781 11.364 7.3821 11.3679 7.2855 11.3679C6.8118 11.3679 6.3552 11.3037 5.9295 11.1852C5.9052 11.178 5.8566 11.1642 5.8566 11.1642L4.3074 11.9532L4.7214 10.6563L4.6821 10.6314C3.6594 9.97651 3 8.94481 3 7.78411C3 5.80471 4.9185 4.20001 7.2855 4.20001C9.4293 4.20001 11.2056 5.51611 11.5212 7.23601ZM5.7942 7.13251C5.4618 7.13251 5.1924 6.87121 5.1924 6.54961C5.1924 6.22771 5.4618 5.96731 5.7942 5.96731C6.1266 5.96731 6.3966 6.22771 6.3966 6.54961C6.3966 6.87121 6.1266 7.13251 5.7942 7.13251ZM8.7768 5.96731C9.1092 5.96731 9.3783 6.22771 9.3783 6.54961C9.3783 6.87121 9.1092 7.13251 8.7768 7.13251C8.4441 7.13251 8.1753 6.87121 8.1753 6.54961C8.1753 6.22771 8.4441 5.96731 8.7768 5.96731Z" fill="white"/>
<path fill-rule="evenodd" clip-rule="evenodd" d="M11.3736 13.5534C9.37382 13.5534 7.75232 12.1977 7.75232 10.5252C7.75232 8.85332 9.37382 7.49762 11.3736 7.49762C13.3725 7.49762 14.9934 8.85332 14.9934 10.5252C14.9934 11.5062 14.436 12.3777 13.5723 12.9309L13.539 12.9516L13.8888 14.0478L12.5805 13.3806C12.5805 13.3806 12.5394 13.3929 12.5187 13.3983C12.1593 13.4988 11.7735 13.5534 11.3736 13.5534ZM9.60482 9.48212C9.60482 9.21092 9.83282 8.99042 10.1133 8.99042C10.3944 8.99042 10.6221 9.21092 10.6221 9.48212C10.6221 9.75452 10.3944 9.97532 10.1133 9.97532C9.83282 9.97532 9.60482 9.75452 9.60482 9.48212ZM12.1245 9.48212C12.1245 9.21092 12.3519 8.99042 12.6327 8.99042C12.9138 8.99042 13.1412 9.21092 13.1412 9.48212C13.1412 9.75452 12.9138 9.97532 12.6327 9.97532C12.3519 9.97532 12.1245 9.75452 12.1245 9.48212Z" fill="white"/>
</svg>
